<?xml version="1.0" encoding="utf-8" standalone="no"?>
<!DOCTYPE svg PUBLIC "-//W3C//DTD SVG 1.1//EN"
  "http://www.w3.org/Graphics/SVG/1.1/DTD/svg11.dtd">
<svg height="146.90808pt" version="1.1" viewBox="0 0 240.52032 146.90808" width="240.52032pt" xmlns="http://www.w3.org/2000/svg" xmlns:xlink="http://www.w3.org/1999/xlink">
 <metadata>
  <rdf:RDF xmlns:cc="http://creativecommons.org/ns#" xmlns:dc="http://purl.org/dc/elements/1.1/" xmlns:rdf="http://www.w3.org/1999/02/22-rdf-syntax-ns#">
   <cc:Work>
    <dc:type rdf:resource="http://purl.org/dc/dcmitype/StillImage"/>
    <dc:date>2022-03-17T12:59:48.413831</dc:date>
    <dc:format>image/svg+xml</dc:format>
    <dc:creator>
     <cc:Agent>
      <dc:title>Matplotlib v3.4.2, https://matplotlib.org/</dc:title>
     </cc:Agent>
    </dc:creator>
   </cc:Work>
  </rdf:RDF>
 </metadata>
 <defs>
  <style type="text/css">*{stroke-linecap:butt;stroke-linejoin:round;}</style>
 </defs>
 <g id="figure_1">
  <g id="patch_1">
   <path d="M 0 146.90808 
L 240.52032 146.90808 
L 240.52032 0 
L 0 0 
z
" style="fill:none;"/>
  </g>
  <g id="axes_1">
   <g id="patch_2">
    <path d="M 29.85942 124.13342 
L 239.80032 124.13342 
L 239.80032 0.72 
L 29.85942 0.72 
z
" style="fill:none;"/>
   </g>
   <g id="line2d_1">
    <path clip-path="url(#p8f295e25d1)" d="M 34.630804 55.564691 
L 43.256549 66.113609 
L 50.277505 74.366037 
L 56.496066 81.341289 
L 62.11283 87.313449 
L 67.328397 92.535366 
L 72.142767 97.043793 
L 76.555939 100.886182 
L 80.768512 104.27212 
L 84.780487 107.221516 
L 88.591862 109.75795 
L 92.20264 111.907804 
L 95.612818 113.696257 
L 99.022996 115.23146 
L 102.232576 116.428913 
L 105.241557 117.319994 
L 108.250538 117.974388 
L 111.05892 118.360715 
L 113.867303 118.520063 
L 116.675685 118.445276 
L 119.484067 118.144911 
L 122.493048 117.588537 
L 125.502029 116.806213 
L 128.711609 115.741924 
L 132.121787 114.373895 
L 135.732564 112.686084 
L 139.744539 110.556883 
L 143.957112 108.061322 
L 148.370284 105.175077 
L 152.783456 102.024012 
L 157.397227 98.461278 
L 162.211597 94.467596 
L 167.427164 89.843103 
L 172.843329 84.736087 
L 178.660693 78.933278 
L 184.879253 72.400974 
L 191.499011 65.114985 
L 198.720566 56.828566 
L 206.744515 47.277996 
L 216.172655 35.700832 
L 228.810375 19.800981 
L 235.028936 11.903985 
L 235.028936 11.903985 
" style="fill:none;stroke:#909090;stroke-dasharray:1.85,0.8;stroke-dashoffset:0;stroke-linecap:round;stroke-width:0.5;"/>
   </g>
   <g id="matplotlib.axis_1">
    <g id="xtick_1">
     <g id="line2d_2">
      <defs>
       <path d="M 0 0 
L 0 2 
" id="m9192b1f300" style="stroke:#000000;stroke-width:0.35;"/>
      </defs>
      <g>
       <use style="stroke:#000000;stroke-width:0.35;" x="50.535418" xlink:href="#m9192b1f300" y="124.13342"/>
      </g>
     </g>
     <g id="text_1">
      <!-- $\mathdefault{−0.4}$ -->
      <g transform="translate(41.831819 134.668222)scale(0.08 -0.08)">
       <defs>
        <path d="M 4218 1472 
C 4326 1472 4442 1472 4442 1600 
C 4442 1728 4326 1728 4218 1728 
L 755 1728 
C 646 1728 531 1728 531 1600 
C 531 1472 646 1472 755 1472 
L 4218 1472 
z
" id="CMSY10-0" transform="scale(0.015625)"/>
        <path d="M 2688 2038 
C 2688 2430 2682 3099 2413 3613 
C 2176 4063 1798 4224 1466 4224 
C 1158 4224 768 4082 525 3620 
C 269 3137 243 2539 243 2038 
C 243 1671 250 1112 448 623 
C 723 -39 1216 -128 1466 -128 
C 1760 -128 2208 -7 2470 604 
C 2662 1048 2688 1568 2688 2038 
z
M 1466 -26 
C 1056 -26 813 328 723 816 
C 653 1196 653 1749 653 2109 
C 653 2604 653 3015 736 3407 
C 858 3954 1216 4121 1466 4121 
C 1728 4121 2067 3947 2189 3420 
C 2272 3054 2278 2623 2278 2109 
C 2278 1691 2278 1176 2202 797 
C 2067 96 1690 -26 1466 -26 
z
" id="CMR17-30" transform="scale(0.015625)"/>
        <path d="M 1178 307 
C 1178 492 1024 620 870 620 
C 685 620 557 467 557 313 
C 557 128 710 0 864 0 
C 1050 0 1178 153 1178 307 
z
" id="CMMI12-3a" transform="scale(0.015625)"/>
        <path d="M 2150 4147 
C 2150 4281 2144 4288 2029 4288 
L 128 1254 
L 128 1088 
L 1779 1088 
L 1779 460 
C 1779 230 1766 166 1318 166 
L 1197 166 
L 1197 0 
C 1402 12 1747 12 1965 12 
C 2182 12 2528 12 2733 0 
L 2733 166 
L 2611 166 
C 2163 166 2150 230 2150 460 
L 2150 1088 
L 2803 1088 
L 2803 1254 
L 2150 1254 
L 2150 4147 
z
M 1798 3723 
L 1798 1254 
L 256 1254 
L 1798 3723 
z
" id="CMR17-34" transform="scale(0.015625)"/>
       </defs>
       <use transform="scale(0.996264)" xlink:href="#CMSY10-0"/>
       <use transform="translate(77.487468 0)scale(0.996264)" xlink:href="#CMR17-30"/>
       <use transform="translate(123.177945 0)scale(0.996264)" xlink:href="#CMMI12-3a"/>
       <use transform="translate(150.275122 0)scale(0.996264)" xlink:href="#CMR17-34"/>
      </g>
     </g>
    </g>
    <g id="xtick_2">
     <g id="line2d_3">
      <g>
       <use style="stroke:#000000;stroke-width:0.35;" x="82.344645" xlink:href="#m9192b1f300" y="124.13342"/>
      </g>
     </g>
     <g id="text_2">
      <!-- $\mathdefault{−0.2}$ -->
      <g transform="translate(73.641047 134.668222)scale(0.08 -0.08)">
       <defs>
        <path d="M 2669 990 
L 2554 990 
C 2490 537 2438 460 2413 422 
C 2381 371 1920 371 1830 371 
L 602 371 
C 832 620 1280 1073 1824 1596 
C 2214 1966 2669 2400 2669 3033 
C 2669 3788 2067 4224 1395 4224 
C 691 4224 262 3603 262 3027 
C 262 2777 448 2745 525 2745 
C 589 2745 781 2783 781 3007 
C 781 3206 614 3264 525 3264 
C 486 3264 448 3257 422 3244 
C 544 3788 915 4057 1306 4057 
C 1862 4057 2227 3616 2227 3033 
C 2227 2477 1901 1998 1536 1583 
L 262 147 
L 262 0 
L 2515 0 
L 2669 990 
z
" id="CMR17-32" transform="scale(0.015625)"/>
       </defs>
       <use transform="scale(0.996264)" xlink:href="#CMSY10-0"/>
       <use transform="translate(77.487468 0)scale(0.996264)" xlink:href="#CMR17-30"/>
       <use transform="translate(123.177945 0)scale(0.996264)" xlink:href="#CMMI12-3a"/>
       <use transform="translate(150.275122 0)scale(0.996264)" xlink:href="#CMR17-32"/>
      </g>
     </g>
    </g>
    <g id="xtick_3">
     <g id="line2d_4">
      <g>
       <use style="stroke:#000000;stroke-width:0.35;" x="114.153872" xlink:href="#m9192b1f300" y="124.13342"/>
      </g>
     </g>
     <g id="text_3">
      <!-- $\mathdefault{0.0}$ -->
      <g transform="translate(108.743527 134.668222)scale(0.08 -0.08)">
       <use transform="scale(0.996264)" xlink:href="#CMR17-30"/>
       <use transform="translate(45.690477 0)scale(0.996264)" xlink:href="#CMMI12-3a"/>
       <use transform="translate(72.787654 0)scale(0.996264)" xlink:href="#CMR17-30"/>
      </g>
     </g>
    </g>
    <g id="xtick_4">
     <g id="line2d_5">
      <g>
       <use style="stroke:#000000;stroke-width:0.35;" x="145.963099" xlink:href="#m9192b1f300" y="124.13342"/>
      </g>
     </g>
     <g id="text_4">
      <!-- $\mathdefault{0.2}$ -->
      <g transform="translate(140.552755 134.668222)scale(0.08 -0.08)">
       <use transform="scale(0.996264)" xlink:href="#CMR17-30"/>
       <use transform="translate(45.690477 0)scale(0.996264)" xlink:href="#CMMI12-3a"/>
       <use transform="translate(72.787654 0)scale(0.996264)" xlink:href="#CMR17-32"/>
      </g>
     </g>
    </g>
    <g id="xtick_5">
     <g id="line2d_6">
      <g>
       <use style="stroke:#000000;stroke-width:0.35;" x="177.772327" xlink:href="#m9192b1f300" y="124.13342"/>
      </g>
     </g>
     <g id="text_5">
      <!-- $\mathdefault{0.4}$ -->
      <g transform="translate(172.361982 134.668222)scale(0.08 -0.08)">
       <use transform="scale(0.996264)" xlink:href="#CMR17-30"/>
       <use transform="translate(45.690477 0)scale(0.996264)" xlink:href="#CMMI12-3a"/>
       <use transform="translate(72.787654 0)scale(0.996264)" xlink:href="#CMR17-34"/>
      </g>
     </g>
    </g>
    <g id="xtick_6">
     <g id="line2d_7">
      <g>
       <use style="stroke:#000000;stroke-width:0.35;" x="209.581554" xlink:href="#m9192b1f300" y="124.13342"/>
      </g>
     </g>
     <g id="text_6">
      <!-- $\mathdefault{0.6}$ -->
      <g transform="translate(204.171209 134.668222)scale(0.08 -0.08)">
       <defs>
        <path d="M 678 2198 
C 678 3712 1395 4076 1811 4076 
C 1946 4076 2272 4049 2400 3782 
C 2298 3782 2106 3782 2106 3558 
C 2106 3385 2246 3328 2336 3328 
C 2394 3328 2566 3353 2566 3571 
C 2566 3987 2246 4224 1805 4224 
C 1043 4224 243 3411 243 2011 
C 243 257 966 -128 1478 -128 
C 2099 -128 2688 431 2688 1295 
C 2688 2101 2170 2688 1517 2688 
C 1126 2688 838 2430 678 1979 
L 678 2198 
z
M 1478 25 
C 691 25 691 1212 691 1450 
C 691 1914 909 2585 1504 2585 
C 1613 2585 1926 2585 2138 2140 
C 2253 1889 2253 1624 2253 1302 
C 2253 954 2253 696 2118 438 
C 1978 173 1773 25 1478 25 
z
" id="CMR17-36" transform="scale(0.015625)"/>
       </defs>
       <use transform="scale(0.996264)" xlink:href="#CMR17-30"/>
       <use transform="translate(45.690477 0)scale(0.996264)" xlink:href="#CMMI12-3a"/>
       <use transform="translate(72.787654 0)scale(0.996264)" xlink:href="#CMR17-36"/>
      </g>
     </g>
    </g>
    <g id="text_7">
     <!-- Interaction Strength$\quad V/J$ -->
     <g transform="translate(85.589511 144.195552)scale(0.08 -0.08)">
      <defs>
       <path d="M 1261 3898 
C 1261 4185 1338 4185 1798 4185 
L 1798 4352 
C 1594 4339 1267 4339 1050 4339 
C 832 4339 506 4339 301 4352 
L 301 4185 
C 762 4185 838 4185 838 3898 
L 838 453 
C 838 166 762 166 301 166 
L 301 0 
C 506 12 832 12 1050 12 
C 1267 12 1594 12 1798 0 
L 1798 166 
C 1338 166 1261 166 1261 453 
L 1261 3898 
z
" id="CMR17-49" transform="scale(0.015625)"/>
       <path d="M 2656 1954 
C 2656 2282 2592 2816 1837 2816 
C 1331 2816 1069 2424 973 2166 
L 966 2166 
L 966 2816 
L 211 2745 
L 211 2578 
C 589 2578 646 2540 646 2231 
L 646 443 
C 646 198 621 166 211 166 
L 211 0 
C 365 12 646 12 813 12 
C 979 12 1267 12 1421 0 
L 1421 166 
C 1011 166 986 192 986 443 
L 986 1678 
C 986 2269 1344 2713 1792 2713 
C 2266 2713 2317 2289 2317 1980 
L 2317 443 
C 2317 198 2291 166 1882 166 
L 1882 0 
C 2035 12 2317 12 2483 12 
C 2650 12 2938 12 3091 0 
L 3091 166 
C 2682 166 2656 192 2656 443 
L 2656 1954 
z
" id="CMR17-6e" transform="scale(0.015625)"/>
       <path d="M 966 2585 
L 1862 2585 
L 1862 2752 
L 966 2752 
L 966 3968 
L 851 3968 
C 838 3292 614 2700 70 2687 
L 70 2585 
L 627 2585 
L 627 778 
C 627 655 627 -64 1370 -64 
C 1747 -64 1965 308 1965 784 
L 1965 1151 
L 1850 1151 
L 1850 790 
C 1850 347 1677 51 1408 51 
C 1222 51 966 179 966 765 
L 966 2585 
z
" id="CMR17-74" transform="scale(0.015625)"/>
       <path d="M 2438 1503 
C 2464 1529 2464 1542 2464 1606 
C 2464 2251 2118 2816 1389 2816 
C 710 2816 173 2175 173 1394 
C 173 554 781 -64 1459 -64 
C 2176 -64 2458 619 2458 755 
C 2458 800 2419 800 2406 800 
C 2362 800 2355 787 2330 709 
C 2189 270 1837 51 1504 51 
C 1229 51 954 206 781 490 
C 582 819 582 1200 582 1503 
L 2438 1503 
z
M 589 1600 
C 634 2511 1126 2713 1382 2713 
C 1818 2713 2112 2308 2118 1600 
L 589 1600 
z
" id="CMR17-65" transform="scale(0.015625)"/>
       <path d="M 960 1517 
C 960 2134 1222 2713 1702 2713 
C 1747 2713 1792 2707 1837 2687 
C 1837 2687 1696 2642 1696 2475 
C 1696 2321 1818 2257 1914 2257 
C 1990 2257 2131 2302 2131 2482 
C 2131 2687 1926 2816 1709 2816 
C 1222 2816 1011 2340 947 2115 
L 941 2115 
L 941 2816 
L 198 2745 
L 198 2578 
C 576 2578 634 2540 634 2231 
L 634 443 
C 634 198 608 166 198 166 
L 198 0 
C 352 12 646 12 813 12 
C 998 12 1325 12 1498 0 
L 1498 166 
C 1037 166 960 166 960 455 
L 960 1517 
z
" id="CMR17-72" transform="scale(0.015625)"/>
       <path d="M 2304 1656 
C 2304 2048 2304 2275 2035 2534 
C 1798 2751 1523 2816 1306 2816 
C 800 2816 435 2408 435 1977 
C 435 1740 627 1728 666 1728 
C 749 1728 896 1779 896 1958 
C 896 2118 774 2188 666 2188 
C 640 2188 608 2182 589 2176 
C 723 2594 1069 2713 1293 2713 
C 1613 2713 1965 2421 1965 1875 
L 1965 1632 
C 1587 1619 1133 1568 774 1373 
C 371 1147 256 822 256 576 
C 256 77 832 -64 1171 -64 
C 1523 -64 1850 135 1990 505 
C 2003 219 2182 -39 2464 -39 
C 2598 -39 2938 51 2938 563 
L 2938 926 
L 2822 926 
L 2822 557 
C 2822 161 2650 109 2566 109 
C 2304 109 2304 446 2304 732 
L 2304 1656 
z
M 1965 887 
C 1965 323 1568 38 1216 38 
C 896 38 646 278 646 576 
C 646 771 730 1114 1101 1322 
C 1408 1497 1760 1523 1965 1536 
L 1965 887 
z
" id="CMR17-61" transform="scale(0.015625)"/>
       <path d="M 2234 2240 
C 2112 2240 1933 2240 1933 2015 
C 1933 1836 2080 1785 2163 1785 
C 2208 1785 2394 1804 2394 2028 
C 2394 2476 1958 2816 1466 2816 
C 787 2816 211 2201 211 1379 
C 211 521 813 -64 1466 -64 
C 2259 -64 2458 676 2458 747 
C 2458 773 2451 792 2406 792 
C 2362 792 2355 786 2330 702 
C 2163 180 1798 51 1523 51 
C 1114 51 621 431 621 1385 
C 621 2358 1094 2700 1472 2700 
C 1722 2700 2093 2582 2234 2240 
z
" id="CMR17-63" transform="scale(0.015625)"/>
       <path d="M 992 3961 
C 992 4102 877 4224 730 4224 
C 589 4224 467 4108 467 3961 
C 467 3820 582 3699 730 3699 
C 870 3699 992 3814 992 3961 
z
M 243 2745 
L 243 2579 
C 602 2579 653 2540 653 2231 
L 653 443 
C 653 198 627 166 218 166 
L 218 0 
C 371 12 646 12 806 12 
C 960 12 1222 12 1370 0 
L 1370 166 
C 992 166 979 205 979 436 
L 979 2816 
L 243 2745 
z
" id="CMR17-69" transform="scale(0.015625)"/>
       <path d="M 2758 1356 
C 2758 2176 2163 2816 1466 2816 
C 768 2816 173 2176 173 1356 
C 173 550 768 -64 1466 -64 
C 2163 -64 2758 550 2758 1356 
z
M 1466 51 
C 1165 51 909 230 762 480 
C 602 768 582 1126 582 1408 
C 582 1676 595 2009 762 2297 
C 890 2508 1139 2713 1466 2713 
C 1754 2713 1997 2553 2150 2329 
C 2349 2028 2349 1606 2349 1408 
C 2349 1158 2336 774 2163 467 
C 1984 172 1709 51 1466 51 
z
" id="CMR17-6f" transform="scale(0.015625)"/>
       <path d="M 2803 4351 
C 2803 4467 2797 4473 2758 4473 
C 2720 4473 2707 4447 2682 4390 
L 2490 3965 
C 2246 4320 1875 4480 1472 4480 
C 819 4480 294 3958 294 3301 
C 294 3101 339 2817 557 2546 
C 794 2250 1018 2198 1530 2063 
C 1722 2011 2042 1927 2106 1901 
C 2470 1747 2662 1360 2662 999 
C 2662 534 2336 38 1779 38 
C 1094 38 454 425 410 1328 
C 403 1431 397 1437 352 1437 
C 301 1437 294 1431 294 1302 
L 294 0 
C 294 -116 301 -122 339 -122 
C 384 -122 397 -90 486 109 
C 493 128 493 141 614 386 
C 934 -39 1472 -128 1779 -128 
C 2477 -128 2970 457 2970 1141 
C 2970 1476 2848 1734 2778 1850 
C 2509 2263 2221 2340 1914 2417 
C 1869 2437 1856 2437 1498 2527 
C 1152 2617 1005 2662 845 2836 
C 666 3036 602 3243 602 3449 
C 602 3868 934 4326 1478 4326 
C 2157 4326 2579 3842 2675 3036 
C 2694 2920 2701 2914 2746 2914 
C 2803 2914 2803 2933 2803 3043 
L 2803 4351 
z
" id="CMR17-53" transform="scale(0.015625)"/>
       <path d="M 710 1165 
C 832 1068 1043 960 1299 960 
C 1805 960 2240 1359 2240 1895 
C 2240 2063 2189 2321 1997 2521 
C 2176 2713 2438 2777 2586 2777 
C 2611 2777 2650 2777 2682 2758 
C 2656 2751 2598 2726 2598 2623 
C 2598 2540 2656 2483 2739 2483 
C 2835 2483 2886 2547 2886 2630 
C 2886 2751 2790 2880 2586 2880 
C 2330 2880 2106 2758 1926 2591 
C 1734 2764 1504 2828 1299 2828 
C 794 2828 358 2431 358 1895 
C 358 1527 570 1294 634 1230 
C 442 1004 442 742 442 710 
C 442 544 506 300 723 166 
C 390 82 128 -184 128 -517 
C 128 -996 736 -1344 1466 -1344 
C 2170 -1344 2803 -1009 2803 -510 
C 2803 384 1856 384 1363 384 
C 1216 384 954 384 922 390 
C 723 422 589 601 589 825 
C 589 883 589 1024 710 1165 
z
M 1299 1068 
C 736 1068 736 1766 736 1895 
C 736 2024 736 2719 1299 2719 
C 1862 2719 1862 2024 1862 1895 
C 1862 1766 1862 1068 1299 1068 
z
M 1466 -1236 
C 826 -1236 384 -883 384 -517 
C 384 -311 493 -118 634 -11 
C 794 102 858 102 1293 102 
C 1818 102 2547 102 2547 -517 
C 2547 -883 2106 -1236 1466 -1236 
z
" id="CMR17-67" transform="scale(0.015625)"/>
       <path d="M 2656 1954 
C 2656 2282 2592 2816 1837 2816 
C 1312 2816 1056 2392 979 2179 
L 973 2179 
L 973 4416 
L 211 4345 
L 211 4179 
C 589 4179 646 4141 646 3843 
L 646 443 
C 646 198 621 166 211 166 
L 211 0 
C 365 12 646 12 813 12 
C 979 12 1267 12 1421 0 
L 1421 166 
C 1011 166 986 192 986 443 
L 986 1678 
C 986 2269 1344 2713 1792 2713 
C 2266 2713 2317 2289 2317 1980 
L 2317 443 
C 2317 198 2291 166 1882 166 
L 1882 0 
C 2035 12 2317 12 2483 12 
C 2650 12 2938 12 3091 0 
L 3091 166 
C 2682 166 2656 192 2656 443 
L 2656 1954 
z
" id="CMR17-68" transform="scale(0.015625)"/>
       <path d="M 3962 3644 
C 4179 3987 4378 4140 4704 4166 
C 4768 4172 4819 4172 4819 4287 
C 4819 4313 4806 4352 4749 4352 
C 4634 4352 4358 4339 4243 4339 
C 4058 4339 3866 4352 3686 4352 
C 3635 4352 3571 4352 3571 4230 
C 3571 4172 3629 4166 3654 4166 
C 3891 4146 3917 4032 3917 3956 
C 3917 3860 3827 3714 3821 3708 
L 1811 540 
L 1363 3968 
C 1363 4153 1696 4166 1766 4166 
C 1862 4166 1920 4166 1920 4287 
C 1920 4352 1850 4352 1830 4352 
C 1722 4352 1594 4339 1485 4339 
L 1126 4339 
C 659 4339 467 4352 461 4352 
C 422 4352 346 4352 346 4236 
C 346 4166 390 4166 493 4166 
C 819 4166 838 4108 858 3949 
L 1370 25 
C 1389 -109 1389 -128 1478 -128 
C 1555 -128 1587 -109 1651 -7 
L 3962 3644 
z
" id="CMMI12-56" transform="scale(0.015625)"/>
       <path d="M 2746 4563 
C 2746 4569 2784 4665 2784 4678 
C 2784 4755 2720 4800 2669 4800 
C 2637 4800 2579 4800 2528 4659 
L 384 -1364 
C 384 -1370 346 -1466 346 -1479 
C 346 -1556 410 -1600 461 -1600 
C 499 -1600 557 -1594 602 -1460 
L 2746 4563 
z
" id="CMMI12-3d" transform="scale(0.015625)"/>
       <path d="M 3418 3911 
C 3469 4102 3482 4166 3795 4166 
C 3898 4166 3962 4166 3962 4281 
C 3962 4352 3904 4352 3878 4352 
C 3770 4352 3648 4339 3533 4339 
L 3181 4339 
C 2912 4339 2630 4352 2362 4352 
C 2304 4352 2227 4352 2227 4236 
C 2227 4172 2278 4172 2278 4166 
L 2438 4166 
C 2950 4166 2950 4115 2950 4019 
C 2950 4013 2950 3968 2925 3866 
L 2189 953 
C 2022 304 1594 0 1286 0 
C 1069 0 762 99 685 428 
C 710 422 742 415 768 415 
C 979 415 1146 601 1146 787 
C 1146 889 1082 1024 890 1024 
C 774 1024 506 959 506 543 
C 506 149 838 -128 1299 -128 
C 1882 -128 2509 304 2662 908 
L 3418 3911 
z
" id="CMMI12-4a" transform="scale(0.015625)"/>
      </defs>
      <use transform="scale(0.996264)" xlink:href="#CMR17-49"/>
      <use transform="translate(32.638409 0)scale(0.996264)" xlink:href="#CMR17-6e"/>
      <use transform="translate(80.931325 0)scale(0.996264)" xlink:href="#CMR17-74"/>
      <use transform="translate(116.212093 0)scale(0.996264)" xlink:href="#CMR17-65"/>
      <use transform="translate(156.697753 0)scale(0.996264)" xlink:href="#CMR17-72"/>
      <use transform="translate(191.978521 0)scale(0.996264)" xlink:href="#CMR17-61"/>
      <use transform="translate(237.668998 0)scale(0.996264)" xlink:href="#CMR17-63"/>
      <use transform="translate(278.154659 0)scale(0.996264)" xlink:href="#CMR17-74"/>
      <use transform="translate(313.435426 0)scale(0.996264)" xlink:href="#CMR17-69"/>
      <use transform="translate(338.306485 0)scale(0.996264)" xlink:href="#CMR17-6f"/>
      <use transform="translate(383.996962 0)scale(0.996264)" xlink:href="#CMR17-6e"/>
      <use transform="translate(464.968298 0)scale(0.996264)" xlink:href="#CMR17-53"/>
      <use transform="translate(515.863668 0)scale(0.996264)" xlink:href="#CMR17-74"/>
      <use transform="translate(551.144436 0)scale(0.996264)" xlink:href="#CMR17-72"/>
      <use transform="translate(586.425204 0)scale(0.996264)" xlink:href="#CMR17-65"/>
      <use transform="translate(626.910864 0)scale(0.996264)" xlink:href="#CMR17-6e"/>
      <use transform="translate(677.806234 0)scale(0.996264)" xlink:href="#CMR17-67"/>
      <use transform="translate(723.496711 0)scale(0.996264)" xlink:href="#CMR17-74"/>
      <use transform="translate(758.777479 0)scale(0.996264)" xlink:href="#CMR17-68"/>
      <use transform="translate(901.053894 0)scale(0.996264)" xlink:href="#CMMI12-56"/>
      <use transform="translate(968.762344 0)scale(0.996264)" xlink:href="#CMMI12-3d"/>
      <use transform="translate(1017.537263 0)scale(0.996264)" xlink:href="#CMMI12-4a"/>
     </g>
    </g>
   </g>
   <g id="matplotlib.axis_2">
    <g id="ytick_1">
     <g id="line2d_8">
      <defs>
       <path d="M 0 0 
L -2 0 
" id="m4546a41039" style="stroke:#000000;stroke-width:0.35;"/>
      </defs>
      <g>
       <use style="stroke:#000000;stroke-width:0.35;" x="29.85942" xlink:href="#m4546a41039" y="118.523165"/>
      </g>
     </g>
     <g id="text_8">
      <!-- $\mathdefault{0.00}$ -->
      <g transform="translate(9.804547 121.290566)scale(0.08 -0.08)">
       <use transform="scale(0.996264)" xlink:href="#CMR17-30"/>
       <use transform="translate(45.690477 0)scale(0.996264)" xlink:href="#CMMI12-3a"/>
       <use transform="translate(72.787654 0)scale(0.996264)" xlink:href="#CMR17-30"/>
       <use transform="translate(118.478131 0)scale(0.996264)" xlink:href="#CMR17-30"/>
      </g>
     </g>
    </g>
    <g id="ytick_2">
     <g id="line2d_9">
      <g>
       <use style="stroke:#000000;stroke-width:0.35;" x="29.85942" xlink:href="#m4546a41039" y="97.5651"/>
      </g>
     </g>
     <g id="text_9">
      <!-- $\mathdefault{0.01}$ -->
      <g transform="translate(9.804547 100.332501)scale(0.08 -0.08)">
       <defs>
        <path d="M 1702 4083 
C 1702 4217 1696 4224 1606 4224 
C 1357 3927 979 3833 621 3820 
C 602 3820 570 3820 563 3808 
C 557 3795 557 3782 557 3648 
C 755 3648 1088 3686 1344 3839 
L 1344 467 
C 1344 243 1331 166 781 166 
L 589 166 
L 589 0 
C 896 6 1216 12 1523 12 
C 1830 12 2150 6 2458 0 
L 2458 166 
L 2266 166 
C 1715 166 1702 236 1702 467 
L 1702 4083 
z
" id="CMR17-31" transform="scale(0.015625)"/>
       </defs>
       <use transform="scale(0.996264)" xlink:href="#CMR17-30"/>
       <use transform="translate(45.690477 0)scale(0.996264)" xlink:href="#CMMI12-3a"/>
       <use transform="translate(72.787654 0)scale(0.996264)" xlink:href="#CMR17-30"/>
       <use transform="translate(118.478131 0)scale(0.996264)" xlink:href="#CMR17-31"/>
      </g>
     </g>
    </g>
    <g id="ytick_3">
     <g id="line2d_10">
      <g>
       <use style="stroke:#000000;stroke-width:0.35;" x="29.85942" xlink:href="#m4546a41039" y="76.607036"/>
      </g>
     </g>
     <g id="text_10">
      <!-- $\mathdefault{0.02}$ -->
      <g transform="translate(9.804547 79.374437)scale(0.08 -0.08)">
       <use transform="scale(0.996264)" xlink:href="#CMR17-30"/>
       <use transform="translate(45.690477 0)scale(0.996264)" xlink:href="#CMMI12-3a"/>
       <use transform="translate(72.787654 0)scale(0.996264)" xlink:href="#CMR17-30"/>
       <use transform="translate(118.478131 0)scale(0.996264)" xlink:href="#CMR17-32"/>
      </g>
     </g>
    </g>
    <g id="ytick_4">
     <g id="line2d_11">
      <g>
       <use style="stroke:#000000;stroke-width:0.35;" x="29.85942" xlink:href="#m4546a41039" y="55.648971"/>
      </g>
     </g>
     <g id="text_11">
      <!-- $\mathdefault{0.03}$ -->
      <g transform="translate(9.804547 58.416372)scale(0.08 -0.08)">
       <defs>
        <path d="M 1414 2176 
C 1984 2176 2234 1673 2234 1094 
C 2234 322 1824 25 1453 25 
C 1114 25 563 193 390 691 
C 422 678 454 678 486 678 
C 640 678 755 780 755 947 
C 755 1132 614 1216 486 1216 
C 378 1216 211 1164 211 927 
C 211 335 787 -128 1466 -128 
C 2176 -128 2720 432 2720 1087 
C 2720 1718 2208 2176 1600 2246 
C 2086 2347 2554 2776 2554 3353 
C 2554 3856 2048 4224 1472 4224 
C 890 4224 378 3862 378 3347 
C 378 3123 544 3084 627 3084 
C 762 3084 877 3167 877 3334 
C 877 3500 762 3584 627 3584 
C 602 3584 570 3584 544 3571 
C 730 3999 1235 4076 1459 4076 
C 1683 4076 2106 3966 2106 3347 
C 2106 3167 2080 2851 1862 2574 
C 1670 2329 1453 2316 1242 2297 
C 1210 2297 1062 2284 1037 2284 
C 992 2278 966 2272 966 2227 
C 966 2182 973 2176 1101 2176 
L 1414 2176 
z
" id="CMR17-33" transform="scale(0.015625)"/>
       </defs>
       <use transform="scale(0.996264)" xlink:href="#CMR17-30"/>
       <use transform="translate(45.690477 0)scale(0.996264)" xlink:href="#CMMI12-3a"/>
       <use transform="translate(72.787654 0)scale(0.996264)" xlink:href="#CMR17-30"/>
       <use transform="translate(118.478131 0)scale(0.996264)" xlink:href="#CMR17-33"/>
      </g>
     </g>
    </g>
    <g id="ytick_5">
     <g id="line2d_12">
      <g>
       <use style="stroke:#000000;stroke-width:0.35;" x="29.85942" xlink:href="#m4546a41039" y="34.690907"/>
      </g>
     </g>
     <g id="text_12">
      <!-- $\mathdefault{0.04}$ -->
      <g transform="translate(9.804547 37.458308)scale(0.08 -0.08)">
       <use transform="scale(0.996264)" xlink:href="#CMR17-30"/>
       <use transform="translate(45.690477 0)scale(0.996264)" xlink:href="#CMMI12-3a"/>
       <use transform="translate(72.787654 0)scale(0.996264)" xlink:href="#CMR17-30"/>
       <use transform="translate(118.478131 0)scale(0.996264)" xlink:href="#CMR17-34"/>
      </g>
     </g>
    </g>
    <g id="ytick_6">
     <g id="line2d_13">
      <g>
       <use style="stroke:#000000;stroke-width:0.35;" x="29.85942" xlink:href="#m4546a41039" y="13.732842"/>
      </g>
     </g>
     <g id="text_13">
      <!-- $\mathdefault{0.05}$ -->
      <g transform="translate(9.804547 16.500243)scale(0.08 -0.08)">
       <defs>
        <path d="M 730 3750 
C 794 3724 1056 3641 1325 3641 
C 1920 3641 2246 3961 2432 4140 
C 2432 4191 2432 4224 2394 4224 
C 2387 4224 2374 4224 2323 4198 
C 2099 4102 1837 4032 1517 4032 
C 1325 4032 1037 4055 723 4191 
C 653 4224 640 4224 634 4224 
C 602 4224 595 4217 595 4090 
L 595 2231 
C 595 2113 595 2080 659 2080 
C 691 2080 704 2093 736 2139 
C 941 2435 1222 2560 1542 2560 
C 1766 2560 2246 2415 2246 1293 
C 2246 1087 2246 716 2054 422 
C 1894 159 1645 25 1370 25 
C 947 25 518 319 403 812 
C 429 806 480 793 506 793 
C 589 793 749 838 749 1036 
C 749 1209 627 1280 506 1280 
C 358 1280 262 1190 262 1011 
C 262 454 704 -128 1382 -128 
C 2042 -128 2669 441 2669 1267 
C 2669 2054 2170 2662 1549 2662 
C 1222 2662 947 2540 730 2304 
L 730 3750 
z
" id="CMR17-35" transform="scale(0.015625)"/>
       </defs>
       <use transform="scale(0.996264)" xlink:href="#CMR17-30"/>
       <use transform="translate(45.690477 0)scale(0.996264)" xlink:href="#CMMI12-3a"/>
       <use transform="translate(72.787654 0)scale(0.996264)" xlink:href="#CMR17-30"/>
       <use transform="translate(118.478131 0)scale(0.996264)" xlink:href="#CMR17-35"/>
      </g>
     </g>
    </g>
    <g id="text_14">
     <!-- Entanglement Entropy Density -->
     <g transform="translate(6.254802 120.020593)rotate(-90)scale(0.08 -0.08)">
      <defs>
       <path d="M 3885 1614 
L 3770 1614 
C 3629 676 3546 166 2419 166 
L 1530 166 
C 1274 166 1261 198 1261 415 
L 1261 2176 
L 1862 2176 
C 2464 2176 2522 1959 2522 1429 
L 2637 1429 
L 2637 3086 
L 2522 3086 
C 2522 2558 2464 2342 1862 2342 
L 1261 2342 
L 1261 3924 
C 1261 4141 1274 4172 1530 4172 
L 2406 4172 
C 3398 4172 3514 3778 3603 2933 
L 3718 2933 
L 3565 4339 
L 326 4339 
L 326 4172 
C 768 4172 838 4172 838 3886 
L 838 453 
C 838 166 768 166 326 166 
L 326 0 
L 3654 0 
L 3885 1614 
z
" id="CMR17-45" transform="scale(0.015625)"/>
       <path d="M 979 4416 
L 218 4345 
L 218 4179 
C 595 4179 653 4141 653 3835 
L 653 439 
C 653 198 627 166 218 166 
L 218 0 
C 371 12 653 12 813 12 
C 979 12 1261 12 1414 0 
L 1414 166 
C 1005 166 979 191 979 439 
L 979 4416 
z
" id="CMR17-6c" transform="scale(0.015625)"/>
       <path d="M 4326 1954 
C 4326 2276 4269 2816 3507 2816 
C 3072 2816 2771 2520 2656 2173 
L 2650 2173 
C 2573 2700 2195 2816 1837 2816 
C 1331 2816 1069 2424 973 2166 
L 966 2166 
L 966 2816 
L 211 2745 
L 211 2578 
C 589 2578 646 2540 646 2231 
L 646 443 
C 646 198 621 166 211 166 
L 211 0 
C 365 12 646 12 813 12 
C 979 12 1267 12 1421 0 
L 1421 166 
C 1011 166 986 192 986 443 
L 986 1678 
C 986 2269 1344 2713 1792 2713 
C 2266 2713 2317 2289 2317 1980 
L 2317 443 
C 2317 198 2291 166 1882 166 
L 1882 0 
C 2035 12 2317 12 2483 12 
C 2650 12 2938 12 3091 0 
L 3091 166 
C 2682 166 2656 192 2656 443 
L 2656 1678 
C 2656 2269 3014 2713 3462 2713 
C 3936 2713 3987 2289 3987 1980 
L 3987 443 
C 3987 198 3962 166 3552 166 
L 3552 0 
C 3706 12 3987 12 4154 12 
C 4320 12 4608 12 4762 0 
L 4762 166 
C 4352 166 4326 192 4326 443 
L 4326 1954 
z
" id="CMR17-6d" transform="scale(0.015625)"/>
       <path d="M 1408 -1114 
C 998 -1114 973 -1088 973 -834 
L 973 380 
C 1158 109 1427 -64 1766 -64 
C 2406 -64 3053 503 3053 1382 
C 3053 2196 2496 2816 1837 2816 
C 1453 2816 1139 2603 960 2345 
L 960 2816 
L 198 2745 
L 198 2577 
C 576 2577 634 2539 634 2228 
L 634 -834 
C 634 -1081 608 -1114 198 -1114 
L 198 -1280 
C 352 -1268 634 -1268 800 -1268 
C 966 -1268 1254 -1268 1408 -1280 
L 1408 -1114 
z
M 973 2015 
C 973 2106 973 2241 1222 2481 
C 1254 2506 1472 2700 1792 2700 
C 2259 2700 2643 2112 2643 1376 
C 2643 639 2234 38 1728 38 
C 1498 38 1248 148 1056 451 
C 973 594 973 632 973 736 
L 973 2015 
z
" id="CMR17-70" transform="scale(0.015625)"/>
       <path d="M 2496 2183 
C 2656 2579 2944 2585 3034 2585 
L 3034 2752 
C 2912 2745 2752 2739 2630 2739 
C 2496 2739 2285 2739 2157 2752 
L 2157 2585 
C 2400 2566 2406 2384 2406 2332 
C 2406 2268 2394 2235 2362 2158 
L 1664 409 
L 902 2300 
C 870 2378 870 2423 870 2430 
C 870 2572 1018 2585 1171 2585 
L 1171 2752 
C 1018 2739 742 2739 582 2739 
C 410 2739 205 2739 64 2752 
L 64 2585 
C 410 2585 448 2553 531 2345 
L 1485 -31 
C 1197 -795 1030 -1242 627 -1242 
C 557 -1242 397 -1223 282 -1106 
C 429 -1093 493 -1002 493 -892 
C 493 -782 416 -685 288 -685 
C 147 -685 77 -782 77 -899 
C 77 -1158 339 -1344 627 -1344 
C 998 -1344 1229 -983 1357 -659 
L 2496 2183 
z
" id="CMR17-79" transform="scale(0.015625)"/>
       <path d="M 333 4352 
L 333 4185 
C 774 4185 845 4185 845 3898 
L 845 453 
C 845 166 774 166 333 166 
L 333 0 
L 2368 0 
C 3398 0 4224 943 4224 2140 
C 4224 3344 3411 4352 2368 4352 
L 333 4352 
z
M 1523 166 
C 1267 166 1254 198 1254 414 
L 1254 3936 
C 1254 4153 1267 4185 1523 4185 
L 2240 4185 
C 2771 4185 3750 3873 3750 2140 
C 3750 1242 3488 879 3366 707 
C 3213 510 2848 166 2240 166 
L 1523 166 
z
" id="CMR17-44" transform="scale(0.015625)"/>
       <path d="M 1978 2688 
C 1978 2803 1971 2809 1933 2809 
C 1907 2809 1901 2803 1824 2707 
C 1805 2681 1747 2617 1728 2592 
C 1523 2809 1235 2816 1126 2816 
C 416 2816 160 2444 160 2073 
C 160 1497 813 1363 998 1324 
C 1402 1241 1542 1216 1677 1100 
C 1760 1024 1901 883 1901 652 
C 1901 384 1747 38 1158 38 
C 602 38 403 460 288 1024 
C 269 1113 269 1120 218 1120 
C 166 1120 160 1113 160 985 
L 160 64 
C 160 -52 166 -58 205 -58 
C 237 -58 243 -52 275 0 
C 314 57 410 211 448 275 
C 576 102 800 -64 1158 -64 
C 1792 -64 2131 281 2131 780 
C 2131 1107 1958 1280 1875 1356 
C 1683 1555 1459 1600 1190 1651 
C 838 1728 390 1817 390 2208 
C 390 2374 480 2726 1126 2726 
C 1811 2726 1850 2086 1862 1881 
C 1869 1849 1901 1843 1920 1843 
C 1978 1843 1978 1862 1978 1971 
L 1978 2688 
z
" id="CMR17-73" transform="scale(0.015625)"/>
      </defs>
      <use transform="scale(0.996264)" xlink:href="#CMR17-45"/>
      <use transform="translate(62.586301 0)scale(0.996264)" xlink:href="#CMR17-6e"/>
      <use transform="translate(110.879216 0)scale(0.996264)" xlink:href="#CMR17-74"/>
      <use transform="translate(146.159984 0)scale(0.996264)" xlink:href="#CMR17-61"/>
      <use transform="translate(191.850461 0)scale(0.996264)" xlink:href="#CMR17-6e"/>
      <use transform="translate(242.745831 0)scale(0.996264)" xlink:href="#CMR17-67"/>
      <use transform="translate(288.436308 0)scale(0.996264)" xlink:href="#CMR17-6c"/>
      <use transform="translate(313.307367 0)scale(0.996264)" xlink:href="#CMR17-65"/>
      <use transform="translate(353.793027 0)scale(0.996264)" xlink:href="#CMR17-6d"/>
      <use transform="translate(430.712617 0)scale(0.996264)" xlink:href="#CMR17-65"/>
      <use transform="translate(471.198277 0)scale(0.996264)" xlink:href="#CMR17-6e"/>
      <use transform="translate(519.491193 0)scale(0.996264)" xlink:href="#CMR17-74"/>
      <use transform="translate(584.847927 0)scale(0.996264)" xlink:href="#CMR17-45"/>
      <use transform="translate(647.434228 0)scale(0.996264)" xlink:href="#CMR17-6e"/>
      <use transform="translate(695.727144 0)scale(0.996264)" xlink:href="#CMR17-74"/>
      <use transform="translate(731.007912 0)scale(0.996264)" xlink:href="#CMR17-72"/>
      <use transform="translate(766.288679 0)scale(0.996264)" xlink:href="#CMR17-6f"/>
      <use transform="translate(811.979157 0)scale(0.996264)" xlink:href="#CMR17-70"/>
      <use transform="translate(860.272072 0)scale(0.996264)" xlink:href="#CMR17-79"/>
      <use transform="translate(938.640955 0)scale(0.996264)" xlink:href="#CMR17-44"/>
      <use transform="translate(1009.03451 0)scale(0.996264)" xlink:href="#CMR17-65"/>
      <use transform="translate(1049.520171 0)scale(0.996264)" xlink:href="#CMR17-6e"/>
      <use transform="translate(1100.415541 0)scale(0.996264)" xlink:href="#CMR17-73"/>
      <use transform="translate(1136.216878 0)scale(0.996264)" xlink:href="#CMR17-69"/>
      <use transform="translate(1161.087937 0)scale(0.996264)" xlink:href="#CMR17-74"/>
      <use transform="translate(1193.766251 0)scale(0.996264)" xlink:href="#CMR17-79"/>
     </g>
    </g>
   </g>
   <g id="LineCollection_1">
    <path clip-path="url(#p8f295e25d1)" d="M 90.296952 111.319181 
L 90.296952 110.789224 
" style="fill:none;stroke:#9e0142;stroke-width:0.5;"/>
   </g>
   <g id="LineCollection_2">
    <path clip-path="url(#p8f295e25d1)" d="M 138.010793 111.314647 
L 138.010793 110.958586 
" style="fill:none;stroke:#9e0142;stroke-width:0.5;"/>
   </g>
   <g id="LineCollection_3">
    <path clip-path="url(#p8f295e25d1)" d="M 74.392338 101.895923 
L 74.392338 99.468406 
" style="fill:none;stroke:#9e0142;stroke-width:0.5;"/>
   </g>
   <g id="LineCollection_4">
    <path clip-path="url(#p8f295e25d1)" d="M 153.915406 102.152623 
L 153.915406 100.351198 
" style="fill:none;stroke:#9e0142;stroke-width:0.5;"/>
   </g>
   <g id="LineCollection_5">
    <path clip-path="url(#p8f295e25d1)" d="M 34.630804 64.499498 
L 34.630804 55.909775 
" style="fill:none;stroke:#9e0142;stroke-width:0.5;"/>
   </g>
   <g id="LineCollection_6">
    <path clip-path="url(#p8f295e25d1)" d="M 235.824167 14.997941 
L 235.824167 6.329701 
" style="fill:none;stroke:#9e0142;stroke-width:0.5;"/>
   </g>
   <g id="LineCollection_7">
    <path clip-path="url(#p8f295e25d1)" d="M 34.630804 56.792754 
L 34.630804 54.336629 
" style="fill:none;stroke:#000000;stroke-width:0.5;"/>
    <path clip-path="url(#p8f295e25d1)" d="M 74.392338 99.43828 
L 74.392338 98.639149 
" style="fill:none;stroke:#000000;stroke-width:0.5;"/>
    <path clip-path="url(#p8f295e25d1)" d="M 90.296952 110.945002 
L 90.296952 110.664498 
" style="fill:none;stroke:#000000;stroke-width:0.5;"/>
    <path clip-path="url(#p8f295e25d1)" d="M 114.153872 118.523165 
L 114.153872 118.523165 
" style="fill:none;stroke:#000000;stroke-width:0.5;"/>
    <path clip-path="url(#p8f295e25d1)" d="M 138.010793 111.651778 
L 138.010793 111.363298 
" style="fill:none;stroke:#000000;stroke-width:0.5;"/>
    <path clip-path="url(#p8f295e25d1)" d="M 153.915406 101.520419 
L 153.915406 100.829087 
" style="fill:none;stroke:#000000;stroke-width:0.5;"/>
    <path clip-path="url(#p8f295e25d1)" d="M 235.824167 12.545185 
L 235.824167 9.241838 
" style="fill:none;stroke:#000000;stroke-width:0.5;"/>
   </g>
   <g id="line2d_14">
    <defs>
     <path d="M 0 2 
C 0.530406 2 1.03916 1.789267 1.414214 1.414214 
C 1.789267 1.03916 2 0.530406 2 0 
C 2 -0.530406 1.789267 -1.03916 1.414214 -1.414214 
C 1.03916 -1.789267 0.530406 -2 0 -2 
C -0.530406 -2 -1.03916 -1.789267 -1.414214 -1.414214 
C -1.789267 -1.03916 -2 -0.530406 -2 0 
C -2 0.530406 -1.789267 1.03916 -1.414214 1.414214 
C -1.03916 1.789267 -0.530406 2 0 2 
z
" id="m8688ad6bc9" style="stroke:#9e0142;stroke-width:0.5;"/>
    </defs>
    <g clip-path="url(#p8f295e25d1)">
     <use style="fill:#ce7fa0;fill-opacity:0.25098;stroke:#9e0142;stroke-width:0.5;" x="90.296952" xlink:href="#m8688ad6bc9" y="111.054202"/>
    </g>
   </g>
   <g id="line2d_15">
    <g clip-path="url(#p8f295e25d1)">
     <use style="fill:#ce7fa0;fill-opacity:0.25098;stroke:#9e0142;stroke-width:0.5;" x="138.010793" xlink:href="#m8688ad6bc9" y="111.136617"/>
    </g>
   </g>
   <g id="line2d_16">
    <g clip-path="url(#p8f295e25d1)">
     <use style="fill:#ce7fa0;fill-opacity:0.25098;stroke:#9e0142;stroke-width:0.5;" x="74.392338" xlink:href="#m8688ad6bc9" y="100.682164"/>
    </g>
   </g>
   <g id="line2d_17">
    <g clip-path="url(#p8f295e25d1)">
     <use style="fill:#ce7fa0;fill-opacity:0.25098;stroke:#9e0142;stroke-width:0.5;" x="153.915406" xlink:href="#m8688ad6bc9" y="101.25191"/>
    </g>
   </g>
   <g id="line2d_18">
    <g clip-path="url(#p8f295e25d1)">
     <use style="fill:#ce7fa0;fill-opacity:0.25098;stroke:#9e0142;stroke-width:0.5;" x="34.630804" xlink:href="#m8688ad6bc9" y="60.204636"/>
    </g>
   </g>
   <g id="line2d_19">
    <g clip-path="url(#p8f295e25d1)">
     <use style="fill:#ce7fa0;fill-opacity:0.25098;stroke:#9e0142;stroke-width:0.5;" x="235.824167" xlink:href="#m8688ad6bc9" y="10.663821"/>
    </g>
   </g>
   <g id="line2d_20">
    <defs>
     <path d="M 0 -2 
L -2 2 
L 2 2 
z
" id="m528ea2110c" style="stroke:#000000;stroke-linejoin:miter;stroke-width:0.5;"/>
    </defs>
    <g clip-path="url(#p8f295e25d1)">
     <use style="fill:#7f7f7f;fill-opacity:0.25098;stroke:#000000;stroke-linejoin:miter;stroke-width:0.5;" x="34.630804" xlink:href="#m528ea2110c" y="55.564691"/>
     <use style="fill:#7f7f7f;fill-opacity:0.25098;stroke:#000000;stroke-linejoin:miter;stroke-width:0.5;" x="74.392338" xlink:href="#m528ea2110c" y="99.038715"/>
     <use style="fill:#7f7f7f;fill-opacity:0.25098;stroke:#000000;stroke-linejoin:miter;stroke-width:0.5;" x="90.296952" xlink:href="#m528ea2110c" y="110.80475"/>
     <use style="fill:#7f7f7f;fill-opacity:0.25098;stroke:#000000;stroke-linejoin:miter;stroke-width:0.5;" x="114.153872" xlink:href="#m528ea2110c" y="118.523165"/>
     <use style="fill:#7f7f7f;fill-opacity:0.25098;stroke:#000000;stroke-linejoin:miter;stroke-width:0.5;" x="138.010793" xlink:href="#m528ea2110c" y="111.507538"/>
     <use style="fill:#7f7f7f;fill-opacity:0.25098;stroke:#000000;stroke-linejoin:miter;stroke-width:0.5;" x="153.915406" xlink:href="#m528ea2110c" y="101.174753"/>
     <use style="fill:#7f7f7f;fill-opacity:0.25098;stroke:#000000;stroke-linejoin:miter;stroke-width:0.5;" x="235.824167" xlink:href="#m528ea2110c" y="10.893512"/>
    </g>
   </g>
   <g id="line2d_21">
    <g clip-path="url(#p8f295e25d1)">
     <use style="fill:#ce7fa0;fill-opacity:0.25098;stroke:#9e0142;stroke-width:0.5;" x="114.153872" xlink:href="#m8688ad6bc9" y="118.523165"/>
    </g>
   </g>
   <g id="patch_3">
    <path d="M 29.85942 124.13342 
L 29.85942 0.72 
" style="fill:none;stroke:#000000;stroke-linecap:square;stroke-linejoin:miter;stroke-width:0.35;"/>
   </g>
   <g id="patch_4">
    <path d="M 239.80032 124.13342 
L 239.80032 0.72 
" style="fill:none;stroke:#000000;stroke-linecap:square;stroke-linejoin:miter;stroke-width:0.35;"/>
   </g>
   <g id="patch_5">
    <path d="M 29.85942 124.13342 
L 239.80032 124.13342 
" style="fill:none;stroke:#000000;stroke-linecap:square;stroke-linejoin:miter;stroke-width:0.35;"/>
   </g>
   <g id="patch_6">
    <path d="M 29.85942 0.72 
L 239.80032 0.72 
" style="fill:none;stroke:#000000;stroke-linecap:square;stroke-linejoin:miter;stroke-width:0.35;"/>
   </g>
   <g id="legend_1">
    <g id="LineCollection_8">
     <path d="M 182.81805 104.063258 
L 182.81805 96.063258 
" style="fill:none;stroke:#9e0142;stroke-width:0.5;"/>
    </g>
    <g id="line2d_22"/>
    <g id="line2d_23">
     <g>
      <use style="fill:#ce7fa0;fill-opacity:0.25098;stroke:#9e0142;stroke-width:0.5;" x="182.81805" xlink:href="#m8688ad6bc9" y="100.063258"/>
     </g>
    </g>
    <g id="text_15">
     <!-- bosons $\mathfrak{s}_b$ -->
     <g transform="translate(188.81805 102.863258)scale(0.08 -0.08)">
      <defs>
       <path d="M 960 4416 
L 198 4345 
L 198 4179 
C 576 4179 634 4141 634 3843 
L 634 -13 
L 749 -13 
L 934 445 
C 1120 141 1395 -64 1766 -64 
C 2406 -64 3053 503 3053 1382 
C 3053 2209 2477 2816 1830 2816 
C 1434 2816 1152 2603 960 2351 
L 960 4416 
z
M 973 2022 
C 973 2138 973 2157 1062 2293 
C 1312 2681 1670 2713 1792 2713 
C 1984 2713 2643 2610 2643 1388 
C 2643 109 1888 38 1734 38 
C 1536 38 1248 115 1043 490 
C 973 613 973 626 973 742 
L 973 2022 
z
" id="CMR17-62" transform="scale(0.015625)"/>
       <path d="M 1229 1561 
C 1197 1548 1158 1548 1120 1548 
C 960 1548 915 1939 915 2152 
C 915 2301 915 2540 1043 2662 
C 1210 2501 1555 2352 2016 2327 
L 2605 2828 
L 2566 2931 
C 2400 2822 2253 2739 2106 2739 
C 2042 2739 1990 2751 1939 2777 
L 1421 3072 
L 448 2417 
C 416 2126 410 1817 410 1503 
C 486 1362 589 1194 685 1071 
L 1338 1445 
C 1414 1491 1472 1510 1562 1510 
C 1722 1510 1894 1381 1894 891 
C 1894 684 1875 217 1728 217 
C 1715 217 1709 217 1702 224 
L 1184 563 
C 1043 652 883 704 723 704 
C 326 704 45 307 -179 76 
L -122 19 
C 83 198 256 294 448 294 
C 717 294 1050 19 1267 -192 
C 1594 6 1946 166 2291 313 
C 2368 595 2394 884 2394 1181 
C 2394 1342 2387 1510 2374 1676 
C 2266 1779 2157 1875 2016 1920 
L 1229 1561 
z
" id="EUFM10-73" transform="scale(0.015625)"/>
       <path d="M 1478 4255 
C 1485 4281 1498 4319 1498 4351 
C 1498 4416 1434 4416 1421 4416 
C 1414 4416 1184 4396 1069 4383 
C 960 4377 864 4364 749 4358 
C 595 4345 550 4339 550 4223 
C 550 4159 614 4159 678 4159 
C 1005 4159 1005 4103 1005 4040 
C 1005 3995 954 3812 928 3699 
L 774 3093 
C 710 2841 346 1392 320 1277 
C 288 1117 288 1008 288 925 
C 288 274 653 -64 1069 -64 
C 1811 -64 2579 887 2579 1813 
C 2579 2400 2246 2816 1766 2816 
C 1434 2816 1133 2541 1011 2413 
L 1478 4255 
z
M 1075 64 
C 870 64 646 217 646 715 
C 646 925 666 1047 781 1494 
C 800 1577 902 1985 928 2068 
C 941 2119 1318 2687 1754 2687 
C 2035 2687 2163 2407 2163 2075 
C 2163 1768 1984 1047 1824 715 
C 1664 370 1370 64 1075 64 
z
" id="CMMI12-62" transform="scale(0.015625)"/>
      </defs>
      <use transform="scale(0.996264)" xlink:href="#CMR17-62"/>
      <use transform="translate(53.497809 0)scale(0.996264)" xlink:href="#CMR17-6f"/>
      <use transform="translate(99.188286 0)scale(0.996264)" xlink:href="#CMR17-73"/>
      <use transform="translate(134.989623 0)scale(0.996264)" xlink:href="#CMR17-6f"/>
      <use transform="translate(180.6801 0)scale(0.996264)" xlink:href="#CMR17-6e"/>
      <use transform="translate(231.57547 0)scale(0.996264)" xlink:href="#CMR17-73"/>
      <use transform="translate(297.452774 0)scale(0.996264)" xlink:href="#EUFM10-73"/>
      <use transform="translate(341.553616 -14.943915)scale(0.697382)" xlink:href="#CMMI12-62"/>
     </g>
    </g>
    <g id="LineCollection_9">
     <path d="M 182.81805 114.413004 
L 182.81805 106.413004 
" style="fill:none;stroke:#000000;stroke-width:0.5;"/>
    </g>
    <g id="line2d_24"/>
    <g id="line2d_25">
     <g>
      <use style="fill:#7f7f7f;fill-opacity:0.25098;stroke:#000000;stroke-linejoin:miter;stroke-width:0.5;" x="182.81805" xlink:href="#m528ea2110c" y="110.413004"/>
     </g>
    </g>
    <g id="text_16">
     <!-- fermions $\mathfrak{s}$ -->
     <g transform="translate(188.81805 113.213004)scale(0.08 -0.08)">
      <defs>
       <path d="M 979 2585 
L 1709 2585 
L 1709 2752 
L 966 2752 
L 966 3539 
C 966 4076 1235 4377 1510 4377 
C 1594 4377 1690 4363 1754 4339 
C 1702 4326 1568 4281 1568 4121 
C 1568 3955 1696 3904 1786 3904 
C 1875 3904 2003 3955 2003 4121 
C 2003 4353 1773 4480 1517 4480 
C 1152 4480 653 4211 653 3526 
L 653 2752 
L 141 2752 
L 141 2585 
L 653 2585 
L 653 441 
C 653 198 627 166 218 166 
L 218 0 
C 371 12 666 12 832 12 
C 1018 12 1344 12 1517 0 
L 1517 166 
C 1056 166 979 166 979 454 
L 979 2585 
z
" id="CMR17-66" transform="scale(0.015625)"/>
      </defs>
      <use transform="scale(0.996264)" xlink:href="#CMR17-66"/>
      <use transform="translate(27.473512 0)scale(0.996264)" xlink:href="#CMR17-65"/>
      <use transform="translate(67.959173 0)scale(0.996264)" xlink:href="#CMR17-72"/>
      <use transform="translate(103.239941 0)scale(0.996264)" xlink:href="#CMR17-6d"/>
      <use transform="translate(180.159531 0)scale(0.996264)" xlink:href="#CMR17-69"/>
      <use transform="translate(205.030589 0)scale(0.996264)" xlink:href="#CMR17-6f"/>
      <use transform="translate(250.721066 0)scale(0.996264)" xlink:href="#CMR17-6e"/>
      <use transform="translate(301.616436 0)scale(0.996264)" xlink:href="#CMR17-73"/>
      <use transform="translate(367.49374 0)scale(0.996264)" xlink:href="#EUFM10-73"/>
     </g>
    </g>
   </g>
  </g>
  <g id="axes_2">
   <g id="patch_7">
    <path d="M 75.195531 61.490173 
L 179.116277 61.490173 
L 179.116277 5.954134 
L 75.195531 5.954134 
z
" style="fill:none;"/>
   </g>
   <g id="LineCollection_10">
    <path clip-path="url(#pc442d97218)" d="M 79.044448 25.660471 
L 176.037144 25.660471 
" style="fill:none;stroke:#909090;stroke-dasharray:2.812,1.216;stroke-dashoffset:0;stroke-width:0.76;"/>
   </g>
   <g id="PolyCollection_1">
    <defs>
     <path d="M 79.044448 -120.624798 
L 79.044448 -92.530471 
L 98.28903 -91.507181 
L 105.986863 -107.13648 
L 129.080362 -125.132338 
L 136.778195 -109.29903 
L 176.422035 -113.092096 
L 176.422035 -130.252719 
L 176.422035 -130.252719 
L 136.778195 -131.425605 
L 129.080362 -138.411141 
L 105.986863 -122.492218 
L 98.28903 -117.408942 
L 79.044448 -120.624798 
z
" id="m0eee73d66b" style="stroke:#909090;stroke-opacity:0.1;"/>
    </defs>
    <g clip-path="url(#pc442d97218)">
     <use style="fill:#909090;fill-opacity:0.1;stroke:#909090;stroke-opacity:0.1;" x="0" xlink:href="#m0eee73d66b" y="146.90808"/>
    </g>
   </g>
   <g id="matplotlib.axis_3">
    <g id="xtick_7">
     <g id="line2d_26">
      <g>
       <use style="stroke:#000000;stroke-width:0.35;" x="79.044448" xlink:href="#m9192b1f300" y="61.490173"/>
      </g>
     </g>
     <g id="text_17">
      <!-- $\mathdefault{−0.5}$ -->
      <g transform="translate(70.34085 72.024975)scale(0.08 -0.08)">
       <use transform="scale(0.996264)" xlink:href="#CMSY10-0"/>
       <use transform="translate(77.487468 0)scale(0.996264)" xlink:href="#CMR17-30"/>
       <use transform="translate(123.177945 0)scale(0.996264)" xlink:href="#CMMI12-3a"/>
       <use transform="translate(150.275122 0)scale(0.996264)" xlink:href="#CMR17-35"/>
      </g>
     </g>
    </g>
    <g id="xtick_8">
     <g id="line2d_27">
      <g>
       <use style="stroke:#000000;stroke-width:0.35;" x="117.533613" xlink:href="#m9192b1f300" y="61.490173"/>
      </g>
     </g>
     <g id="text_18">
      <!-- $\mathdefault{0.0}$ -->
      <g transform="translate(112.123268 72.024975)scale(0.08 -0.08)">
       <use transform="scale(0.996264)" xlink:href="#CMR17-30"/>
       <use transform="translate(45.690477 0)scale(0.996264)" xlink:href="#CMMI12-3a"/>
       <use transform="translate(72.787654 0)scale(0.996264)" xlink:href="#CMR17-30"/>
      </g>
     </g>
    </g>
    <g id="xtick_9">
     <g id="line2d_28">
      <g>
       <use style="stroke:#000000;stroke-width:0.35;" x="156.022778" xlink:href="#m9192b1f300" y="61.490173"/>
      </g>
     </g>
     <g id="text_19">
      <!-- $\mathdefault{0.5}$ -->
      <g transform="translate(150.612433 72.024975)scale(0.08 -0.08)">
       <use transform="scale(0.996264)" xlink:href="#CMR17-30"/>
       <use transform="translate(45.690477 0)scale(0.996264)" xlink:href="#CMMI12-3a"/>
       <use transform="translate(72.787654 0)scale(0.996264)" xlink:href="#CMR17-35"/>
      </g>
     </g>
    </g>
    <g id="text_20">
     <!-- $V/J$ -->
     <g transform="translate(119.789675 81.552305)scale(0.08 -0.08)">
      <use transform="scale(0.996264)" xlink:href="#CMMI12-56"/>
      <use transform="translate(67.70845 0)scale(0.996264)" xlink:href="#CMMI12-3d"/>
      <use transform="translate(116.483369 0)scale(0.996264)" xlink:href="#CMMI12-4a"/>
     </g>
    </g>
   </g>
   <g id="matplotlib.axis_4">
    <g id="ytick_7">
     <g id="line2d_29">
      <g>
       <use style="stroke:#000000;stroke-width:0.35;" x="75.195531" xlink:href="#m4546a41039" y="45.565861"/>
      </g>
     </g>
     <g id="text_21">
      <!-- $\mathdefault{0.9}$ -->
      <g transform="translate(59.374842 48.333262)scale(0.08 -0.08)">
       <defs>
        <path d="M 2253 1871 
C 2253 448 1670 25 1190 25 
C 1043 25 685 43 538 281 
C 704 256 826 345 826 505 
C 826 678 685 736 595 736 
C 538 736 365 710 365 492 
C 365 68 742 -128 1203 -128 
C 1939 -128 2688 665 2688 2090 
C 2688 3857 1971 4224 1485 4224 
C 851 4224 243 3664 243 2800 
C 243 2000 762 1408 1414 1408 
C 1952 1408 2189 1910 2253 2122 
L 2253 1871 
z
M 1427 1510 
C 1254 1510 1011 1542 813 1929 
C 678 2181 678 2477 678 2793 
C 678 3174 678 3438 858 3722 
C 947 3857 1114 4076 1485 4076 
C 2240 4076 2240 2909 2240 2651 
C 2240 2193 2035 1510 1427 1510 
z
" id="CMR17-39" transform="scale(0.015625)"/>
       </defs>
       <use transform="scale(0.996264)" xlink:href="#CMR17-30"/>
       <use transform="translate(45.690477 0)scale(0.996264)" xlink:href="#CMMI12-3a"/>
       <use transform="translate(72.787654 0)scale(0.996264)" xlink:href="#CMR17-39"/>
      </g>
     </g>
    </g>
    <g id="ytick_8">
     <g id="line2d_30">
      <g>
       <use style="stroke:#000000;stroke-width:0.35;" x="75.195531" xlink:href="#m4546a41039" y="25.660471"/>
      </g>
     </g>
     <g id="text_22">
      <!-- $\mathdefault{1.0}$ -->
      <g transform="translate(59.374842 28.427872)scale(0.08 -0.08)">
       <use transform="scale(0.996264)" xlink:href="#CMR17-31"/>
       <use transform="translate(45.690477 0)scale(0.996264)" xlink:href="#CMMI12-3a"/>
       <use transform="translate(72.787654 0)scale(0.996264)" xlink:href="#CMR17-30"/>
      </g>
     </g>
    </g>
    <g id="text_23">
     <!-- $\mathfrak{s}_b/\mathfrak{s}$ -->
     <g transform="translate(55.382314 42.006494)rotate(-90)scale(0.08 -0.08)">
      <use transform="scale(0.996264)" xlink:href="#EUFM10-73"/>
      <use transform="translate(44.100842 -14.943915)scale(0.697382)" xlink:href="#CMMI12-62"/>
      <use transform="translate(73.631961 0)scale(0.996264)" xlink:href="#CMMI12-3d"/>
      <use transform="translate(122.40688 0)scale(0.996264)" xlink:href="#EUFM10-73"/>
     </g>
    </g>
   </g>
   <g id="line2d_31">
    <defs>
     <path d="M -2.5 2.5 
L 2.5 -2.5 
M -2.5 -2.5 
L 2.5 2.5 
" id="m67eb6f288f" style="stroke:#909090;stroke-width:0.75;"/>
    </defs>
    <g clip-path="url(#pc442d97218)">
     <use style="fill:#909090;stroke:#909090;stroke-width:0.75;" x="79.044448" xlink:href="#m67eb6f288f" y="40.330445"/>
     <use style="fill:#909090;stroke:#909090;stroke-width:0.75;" x="98.28903" xlink:href="#m67eb6f288f" y="42.450019"/>
     <use style="fill:#909090;stroke:#909090;stroke-width:0.75;" x="105.986863" xlink:href="#m67eb6f288f" y="32.093731"/>
     <use style="fill:#909090;stroke:#909090;stroke-width:0.75;" x="129.080362" xlink:href="#m67eb6f288f" y="15.136341"/>
     <use style="fill:#909090;stroke:#909090;stroke-width:0.75;" x="136.778195" xlink:href="#m67eb6f288f" y="26.545762"/>
     <use style="fill:#909090;stroke:#909090;stroke-width:0.75;" x="176.422035" xlink:href="#m67eb6f288f" y="25.235673"/>
    </g>
   </g>
   <g id="patch_8">
    <path d="M 75.195531 61.490173 
L 75.195531 5.954134 
" style="fill:none;stroke:#000000;stroke-linecap:square;stroke-linejoin:miter;stroke-width:0.35;"/>
   </g>
   <g id="patch_9">
    <path d="M 75.195531 61.490173 
L 179.116277 61.490173 
" style="fill:none;stroke:#000000;stroke-linecap:square;stroke-linejoin:miter;stroke-width:0.35;"/>
   </g>
  </g>
 </g>
 <defs>
  <clipPath id="p8f295e25d1">
   <rect height="123.41342" width="209.9409" x="29.85942" y="0.72"/>
  </clipPath>
  <clipPath id="pc442d97218">
   <rect height="55.536039" width="103.920746" x="75.195531" y="5.954134"/>
  </clipPath>
 </defs>
</svg>
