<?xml version="1.0" encoding="utf-8" standalone="no"?>
<!DOCTYPE svg PUBLIC "-//W3C//DTD SVG 1.1//EN"
  "http://www.w3.org/Graphics/SVG/1.1/DTD/svg11.dtd">
<svg height="146.90808pt" version="1.1" viewBox="0 0 240.52032 146.90808" width="240.52032pt" xmlns="http://www.w3.org/2000/svg" xmlns:xlink="http://www.w3.org/1999/xlink">
 <metadata>
  <rdf:RDF xmlns:cc="http://creativecommons.org/ns#" xmlns:dc="http://purl.org/dc/elements/1.1/" xmlns:rdf="http://www.w3.org/1999/02/22-rdf-syntax-ns#">
   <cc:Work>
    <dc:type rdf:resource="http://purl.org/dc/dcmitype/StillImage"/>
    <dc:date>2021-11-12T09:24:56.969442</dc:date>
    <dc:format>image/svg+xml</dc:format>
    <dc:creator>
     <cc:Agent>
      <dc:title>Matplotlib v3.4.2, https://matplotlib.org/</dc:title>
     </cc:Agent>
    </dc:creator>
   </cc:Work>
  </rdf:RDF>
 </metadata>
 <defs>
  <style type="text/css">*{stroke-linecap:butt;stroke-linejoin:round;}</style>
 </defs>
 <g id="figure_1">
  <g id="patch_1">
   <path d="M 0 146.90808 
L 240.52032 146.90808 
L 240.52032 0 
L 0 0 
z
" style="fill:none;"/>
  </g>
  <g id="axes_1">
   <g id="patch_2">
    <path d="M 35.255901 124.13342 
L 239.80032 124.13342 
L 239.80032 0.72 
L 35.255901 0.72 
z
" style="fill:none;"/>
   </g>
   <g id="line2d_1">
    <path clip-path="url(#p2c1f86826b)" d="M 19.403448 -1 
L 20.464465 2.078443 
L 22.718398 8.386107 
L 24.972331 14.467823 
L 27.226264 20.329335 
L 29.480197 25.976168 
L 31.73413 31.413642 
L 33.988063 36.646881 
L 36.241996 41.680818 
L 38.495929 46.520208 
L 40.749862 51.169632 
L 43.003795 55.633509 
L 45.257728 59.916098 
L 47.511661 64.021507 
L 49.765594 67.9537 
L 52.019527 71.716504 
L 54.27346 75.313609 
L 56.527393 78.748582 
L 58.781326 82.024863 
L 61.035259 85.145778 
L 63.289192 88.114539 
L 65.543125 90.934249 
L 67.797058 93.607906 
L 70.050991 96.138409 
L 72.304924 98.52856 
L 74.558857 100.781066 
L 76.81279 102.898549 
L 79.066723 104.883539 
L 81.320656 106.738487 
L 83.574589 108.465763 
L 85.828522 110.067658 
L 88.082455 111.546389 
L 90.336388 112.904101 
L 92.590321 114.142871 
L 94.844254 115.264706 
L 97.098187 116.271548 
L 99.35212 117.165279 
L 101.606053 117.947717 
L 103.859986 118.620621 
L 106.113919 119.185696 
L 108.367852 119.644588 
L 110.621785 119.998892 
L 112.875718 120.250149 
L 115.129651 120.39985 
L 117.383584 120.449438 
L 119.637517 120.400307 
L 121.89145 120.253806 
L 124.145383 120.011238 
L 126.399316 119.673862 
L 128.653249 119.242895 
L 130.907182 118.719514 
L 133.161115 118.104852 
L 135.415048 117.400006 
L 137.668981 116.606032 
L 139.922914 115.723951 
L 142.176847 114.754744 
L 144.43078 113.69936 
L 146.684713 112.55871 
L 148.938646 111.333672 
L 151.192579 110.025091 
L 153.446512 108.633777 
L 155.700445 107.16051 
L 157.954378 105.606038 
L 160.208311 103.971076 
L 162.462244 102.25631 
L 164.716177 100.462397 
L 166.97011 98.589963 
L 169.224043 96.639604 
L 171.477976 94.611889 
L 173.731909 92.507359 
L 175.985842 90.326524 
L 178.239775 88.06987 
L 180.493708 85.737853 
L 182.747641 83.330903 
L 185.001574 80.849423 
L 187.255507 78.293789 
L 189.50944 75.664351 
L 191.763373 72.961432 
L 194.017306 70.185329 
L 196.271239 67.336313 
L 198.525172 64.414628 
L 200.779105 61.420493 
L 203.033038 58.354101 
L 205.286971 55.215617 
L 207.540904 52.005181 
L 209.794837 48.722908 
L 212.04877 45.368884 
L 214.302703 41.94317 
L 216.556636 38.445801 
L 218.810569 34.876782 
L 221.064502 31.236094 
L 223.318435 27.523688 
L 225.572368 23.739489 
L 227.826301 19.883392 
L 230.080234 15.955263 
L 232.334167 11.954942 
L 234.5881 7.882234 
L 236.842033 3.73692 
L 239.095966 -0.481256 
L 239.368426 -1 
" style="fill:none;stroke:#808080;stroke-linecap:round;stroke-width:0.75;"/>
   </g>
   <g id="matplotlib.axis_1">
    <g id="xtick_1">
     <g id="line2d_2">
      <defs>
       <path d="M 0 0 
L 0 2 
" id="m31a277a221" style="stroke:#000000;stroke-width:0.35;"/>
      </defs>
      <g>
       <use style="stroke:#000000;stroke-width:0.35;" x="55.400427" xlink:href="#m31a277a221" y="124.13342"/>
      </g>
     </g>
     <g id="text_1">
      <!-- $\mathdefault{−0.4}$ -->
      <g transform="translate(46.696829 134.668222)scale(0.08 -0.08)">
       <defs>
        <path d="M 4218 1472 
C 4326 1472 4442 1472 4442 1600 
C 4442 1728 4326 1728 4218 1728 
L 755 1728 
C 646 1728 531 1728 531 1600 
C 531 1472 646 1472 755 1472 
L 4218 1472 
z
" id="CMSY10-0" transform="scale(0.015625)"/>
        <path d="M 2688 2038 
C 2688 2430 2682 3099 2413 3613 
C 2176 4063 1798 4224 1466 4224 
C 1158 4224 768 4082 525 3620 
C 269 3137 243 2539 243 2038 
C 243 1671 250 1112 448 623 
C 723 -39 1216 -128 1466 -128 
C 1760 -128 2208 -7 2470 604 
C 2662 1048 2688 1568 2688 2038 
z
M 1466 -26 
C 1056 -26 813 328 723 816 
C 653 1196 653 1749 653 2109 
C 653 2604 653 3015 736 3407 
C 858 3954 1216 4121 1466 4121 
C 1728 4121 2067 3947 2189 3420 
C 2272 3054 2278 2623 2278 2109 
C 2278 1691 2278 1176 2202 797 
C 2067 96 1690 -26 1466 -26 
z
" id="CMR17-30" transform="scale(0.015625)"/>
        <path d="M 1178 307 
C 1178 492 1024 620 870 620 
C 685 620 557 467 557 313 
C 557 128 710 0 864 0 
C 1050 0 1178 153 1178 307 
z
" id="CMMI12-3a" transform="scale(0.015625)"/>
        <path d="M 2150 4147 
C 2150 4281 2144 4288 2029 4288 
L 128 1254 
L 128 1088 
L 1779 1088 
L 1779 460 
C 1779 230 1766 166 1318 166 
L 1197 166 
L 1197 0 
C 1402 12 1747 12 1965 12 
C 2182 12 2528 12 2733 0 
L 2733 166 
L 2611 166 
C 2163 166 2150 230 2150 460 
L 2150 1088 
L 2803 1088 
L 2803 1254 
L 2150 1254 
L 2150 4147 
z
M 1798 3723 
L 1798 1254 
L 256 1254 
L 1798 3723 
z
" id="CMR17-34" transform="scale(0.015625)"/>
       </defs>
       <use transform="scale(0.996264)" xlink:href="#CMSY10-0"/>
       <use transform="translate(77.487468 0)scale(0.996264)" xlink:href="#CMR17-30"/>
       <use transform="translate(123.177945 0)scale(0.996264)" xlink:href="#CMMI12-3a"/>
       <use transform="translate(150.275122 0)scale(0.996264)" xlink:href="#CMR17-34"/>
      </g>
     </g>
    </g>
    <g id="xtick_2">
     <g id="line2d_3">
      <g>
       <use style="stroke:#000000;stroke-width:0.35;" x="86.392005" xlink:href="#m31a277a221" y="124.13342"/>
      </g>
     </g>
     <g id="text_2">
      <!-- $\mathdefault{−0.2}$ -->
      <g transform="translate(77.688407 134.668222)scale(0.08 -0.08)">
       <defs>
        <path d="M 2669 990 
L 2554 990 
C 2490 537 2438 460 2413 422 
C 2381 371 1920 371 1830 371 
L 602 371 
C 832 620 1280 1073 1824 1596 
C 2214 1966 2669 2400 2669 3033 
C 2669 3788 2067 4224 1395 4224 
C 691 4224 262 3603 262 3027 
C 262 2777 448 2745 525 2745 
C 589 2745 781 2783 781 3007 
C 781 3206 614 3264 525 3264 
C 486 3264 448 3257 422 3244 
C 544 3788 915 4057 1306 4057 
C 1862 4057 2227 3616 2227 3033 
C 2227 2477 1901 1998 1536 1583 
L 262 147 
L 262 0 
L 2515 0 
L 2669 990 
z
" id="CMR17-32" transform="scale(0.015625)"/>
       </defs>
       <use transform="scale(0.996264)" xlink:href="#CMSY10-0"/>
       <use transform="translate(77.487468 0)scale(0.996264)" xlink:href="#CMR17-30"/>
       <use transform="translate(123.177945 0)scale(0.996264)" xlink:href="#CMMI12-3a"/>
       <use transform="translate(150.275122 0)scale(0.996264)" xlink:href="#CMR17-32"/>
      </g>
     </g>
    </g>
    <g id="xtick_3">
     <g id="line2d_4">
      <g>
       <use style="stroke:#000000;stroke-width:0.35;" x="117.383584" xlink:href="#m31a277a221" y="124.13342"/>
      </g>
     </g>
     <g id="text_3">
      <!-- $\mathdefault{0.0}$ -->
      <g transform="translate(111.973239 134.668222)scale(0.08 -0.08)">
       <use transform="scale(0.996264)" xlink:href="#CMR17-30"/>
       <use transform="translate(45.690477 0)scale(0.996264)" xlink:href="#CMMI12-3a"/>
       <use transform="translate(72.787654 0)scale(0.996264)" xlink:href="#CMR17-30"/>
      </g>
     </g>
    </g>
    <g id="xtick_4">
     <g id="line2d_5">
      <g>
       <use style="stroke:#000000;stroke-width:0.35;" x="148.375163" xlink:href="#m31a277a221" y="124.13342"/>
      </g>
     </g>
     <g id="text_4">
      <!-- $\mathdefault{0.2}$ -->
      <g transform="translate(142.964818 134.668222)scale(0.08 -0.08)">
       <use transform="scale(0.996264)" xlink:href="#CMR17-30"/>
       <use transform="translate(45.690477 0)scale(0.996264)" xlink:href="#CMMI12-3a"/>
       <use transform="translate(72.787654 0)scale(0.996264)" xlink:href="#CMR17-32"/>
      </g>
     </g>
    </g>
    <g id="xtick_5">
     <g id="line2d_6">
      <g>
       <use style="stroke:#000000;stroke-width:0.35;" x="179.366742" xlink:href="#m31a277a221" y="124.13342"/>
      </g>
     </g>
     <g id="text_5">
      <!-- $\mathdefault{0.4}$ -->
      <g transform="translate(173.956397 134.668222)scale(0.08 -0.08)">
       <use transform="scale(0.996264)" xlink:href="#CMR17-30"/>
       <use transform="translate(45.690477 0)scale(0.996264)" xlink:href="#CMMI12-3a"/>
       <use transform="translate(72.787654 0)scale(0.996264)" xlink:href="#CMR17-34"/>
      </g>
     </g>
    </g>
    <g id="xtick_6">
     <g id="line2d_7">
      <g>
       <use style="stroke:#000000;stroke-width:0.35;" x="210.35832" xlink:href="#m31a277a221" y="124.13342"/>
      </g>
     </g>
     <g id="text_6">
      <!-- $\mathdefault{0.6}$ -->
      <g transform="translate(204.947975 134.668222)scale(0.08 -0.08)">
       <defs>
        <path d="M 678 2198 
C 678 3712 1395 4076 1811 4076 
C 1946 4076 2272 4049 2400 3782 
C 2298 3782 2106 3782 2106 3558 
C 2106 3385 2246 3328 2336 3328 
C 2394 3328 2566 3353 2566 3571 
C 2566 3987 2246 4224 1805 4224 
C 1043 4224 243 3411 243 2011 
C 243 257 966 -128 1478 -128 
C 2099 -128 2688 431 2688 1295 
C 2688 2101 2170 2688 1517 2688 
C 1126 2688 838 2430 678 1979 
L 678 2198 
z
M 1478 25 
C 691 25 691 1212 691 1450 
C 691 1914 909 2585 1504 2585 
C 1613 2585 1926 2585 2138 2140 
C 2253 1889 2253 1624 2253 1302 
C 2253 954 2253 696 2118 438 
C 1978 173 1773 25 1478 25 
z
" id="CMR17-36" transform="scale(0.015625)"/>
       </defs>
       <use transform="scale(0.996264)" xlink:href="#CMR17-30"/>
       <use transform="translate(45.690477 0)scale(0.996264)" xlink:href="#CMMI12-3a"/>
       <use transform="translate(72.787654 0)scale(0.996264)" xlink:href="#CMR17-36"/>
      </g>
     </g>
    </g>
    <g id="text_7">
     <!-- Interaction Strength$\quad V/J$ -->
     <g transform="translate(88.287751 144.195552)scale(0.08 -0.08)">
      <defs>
       <path d="M 1261 3898 
C 1261 4185 1338 4185 1798 4185 
L 1798 4352 
C 1594 4339 1267 4339 1050 4339 
C 832 4339 506 4339 301 4352 
L 301 4185 
C 762 4185 838 4185 838 3898 
L 838 453 
C 838 166 762 166 301 166 
L 301 0 
C 506 12 832 12 1050 12 
C 1267 12 1594 12 1798 0 
L 1798 166 
C 1338 166 1261 166 1261 453 
L 1261 3898 
z
" id="CMR17-49" transform="scale(0.015625)"/>
       <path d="M 2656 1954 
C 2656 2282 2592 2816 1837 2816 
C 1331 2816 1069 2424 973 2166 
L 966 2166 
L 966 2816 
L 211 2745 
L 211 2578 
C 589 2578 646 2540 646 2231 
L 646 443 
C 646 198 621 166 211 166 
L 211 0 
C 365 12 646 12 813 12 
C 979 12 1267 12 1421 0 
L 1421 166 
C 1011 166 986 192 986 443 
L 986 1678 
C 986 2269 1344 2713 1792 2713 
C 2266 2713 2317 2289 2317 1980 
L 2317 443 
C 2317 198 2291 166 1882 166 
L 1882 0 
C 2035 12 2317 12 2483 12 
C 2650 12 2938 12 3091 0 
L 3091 166 
C 2682 166 2656 192 2656 443 
L 2656 1954 
z
" id="CMR17-6e" transform="scale(0.015625)"/>
       <path d="M 966 2585 
L 1862 2585 
L 1862 2752 
L 966 2752 
L 966 3968 
L 851 3968 
C 838 3292 614 2700 70 2687 
L 70 2585 
L 627 2585 
L 627 778 
C 627 655 627 -64 1370 -64 
C 1747 -64 1965 308 1965 784 
L 1965 1151 
L 1850 1151 
L 1850 790 
C 1850 347 1677 51 1408 51 
C 1222 51 966 179 966 765 
L 966 2585 
z
" id="CMR17-74" transform="scale(0.015625)"/>
       <path d="M 2438 1503 
C 2464 1529 2464 1542 2464 1606 
C 2464 2251 2118 2816 1389 2816 
C 710 2816 173 2175 173 1394 
C 173 554 781 -64 1459 -64 
C 2176 -64 2458 619 2458 755 
C 2458 800 2419 800 2406 800 
C 2362 800 2355 787 2330 709 
C 2189 270 1837 51 1504 51 
C 1229 51 954 206 781 490 
C 582 819 582 1200 582 1503 
L 2438 1503 
z
M 589 1600 
C 634 2511 1126 2713 1382 2713 
C 1818 2713 2112 2308 2118 1600 
L 589 1600 
z
" id="CMR17-65" transform="scale(0.015625)"/>
       <path d="M 960 1517 
C 960 2134 1222 2713 1702 2713 
C 1747 2713 1792 2707 1837 2687 
C 1837 2687 1696 2642 1696 2475 
C 1696 2321 1818 2257 1914 2257 
C 1990 2257 2131 2302 2131 2482 
C 2131 2687 1926 2816 1709 2816 
C 1222 2816 1011 2340 947 2115 
L 941 2115 
L 941 2816 
L 198 2745 
L 198 2578 
C 576 2578 634 2540 634 2231 
L 634 443 
C 634 198 608 166 198 166 
L 198 0 
C 352 12 646 12 813 12 
C 998 12 1325 12 1498 0 
L 1498 166 
C 1037 166 960 166 960 455 
L 960 1517 
z
" id="CMR17-72" transform="scale(0.015625)"/>
       <path d="M 2304 1656 
C 2304 2048 2304 2275 2035 2534 
C 1798 2751 1523 2816 1306 2816 
C 800 2816 435 2408 435 1977 
C 435 1740 627 1728 666 1728 
C 749 1728 896 1779 896 1958 
C 896 2118 774 2188 666 2188 
C 640 2188 608 2182 589 2176 
C 723 2594 1069 2713 1293 2713 
C 1613 2713 1965 2421 1965 1875 
L 1965 1632 
C 1587 1619 1133 1568 774 1373 
C 371 1147 256 822 256 576 
C 256 77 832 -64 1171 -64 
C 1523 -64 1850 135 1990 505 
C 2003 219 2182 -39 2464 -39 
C 2598 -39 2938 51 2938 563 
L 2938 926 
L 2822 926 
L 2822 557 
C 2822 161 2650 109 2566 109 
C 2304 109 2304 446 2304 732 
L 2304 1656 
z
M 1965 887 
C 1965 323 1568 38 1216 38 
C 896 38 646 278 646 576 
C 646 771 730 1114 1101 1322 
C 1408 1497 1760 1523 1965 1536 
L 1965 887 
z
" id="CMR17-61" transform="scale(0.015625)"/>
       <path d="M 2234 2240 
C 2112 2240 1933 2240 1933 2015 
C 1933 1836 2080 1785 2163 1785 
C 2208 1785 2394 1804 2394 2028 
C 2394 2476 1958 2816 1466 2816 
C 787 2816 211 2201 211 1379 
C 211 521 813 -64 1466 -64 
C 2259 -64 2458 676 2458 747 
C 2458 773 2451 792 2406 792 
C 2362 792 2355 786 2330 702 
C 2163 180 1798 51 1523 51 
C 1114 51 621 431 621 1385 
C 621 2358 1094 2700 1472 2700 
C 1722 2700 2093 2582 2234 2240 
z
" id="CMR17-63" transform="scale(0.015625)"/>
       <path d="M 992 3961 
C 992 4102 877 4224 730 4224 
C 589 4224 467 4108 467 3961 
C 467 3820 582 3699 730 3699 
C 870 3699 992 3814 992 3961 
z
M 243 2745 
L 243 2579 
C 602 2579 653 2540 653 2231 
L 653 443 
C 653 198 627 166 218 166 
L 218 0 
C 371 12 646 12 806 12 
C 960 12 1222 12 1370 0 
L 1370 166 
C 992 166 979 205 979 436 
L 979 2816 
L 243 2745 
z
" id="CMR17-69" transform="scale(0.015625)"/>
       <path d="M 2758 1356 
C 2758 2176 2163 2816 1466 2816 
C 768 2816 173 2176 173 1356 
C 173 550 768 -64 1466 -64 
C 2163 -64 2758 550 2758 1356 
z
M 1466 51 
C 1165 51 909 230 762 480 
C 602 768 582 1126 582 1408 
C 582 1676 595 2009 762 2297 
C 890 2508 1139 2713 1466 2713 
C 1754 2713 1997 2553 2150 2329 
C 2349 2028 2349 1606 2349 1408 
C 2349 1158 2336 774 2163 467 
C 1984 172 1709 51 1466 51 
z
" id="CMR17-6f" transform="scale(0.015625)"/>
       <path d="M 2803 4351 
C 2803 4467 2797 4473 2758 4473 
C 2720 4473 2707 4447 2682 4390 
L 2490 3965 
C 2246 4320 1875 4480 1472 4480 
C 819 4480 294 3958 294 3301 
C 294 3101 339 2817 557 2546 
C 794 2250 1018 2198 1530 2063 
C 1722 2011 2042 1927 2106 1901 
C 2470 1747 2662 1360 2662 999 
C 2662 534 2336 38 1779 38 
C 1094 38 454 425 410 1328 
C 403 1431 397 1437 352 1437 
C 301 1437 294 1431 294 1302 
L 294 0 
C 294 -116 301 -122 339 -122 
C 384 -122 397 -90 486 109 
C 493 128 493 141 614 386 
C 934 -39 1472 -128 1779 -128 
C 2477 -128 2970 457 2970 1141 
C 2970 1476 2848 1734 2778 1850 
C 2509 2263 2221 2340 1914 2417 
C 1869 2437 1856 2437 1498 2527 
C 1152 2617 1005 2662 845 2836 
C 666 3036 602 3243 602 3449 
C 602 3868 934 4326 1478 4326 
C 2157 4326 2579 3842 2675 3036 
C 2694 2920 2701 2914 2746 2914 
C 2803 2914 2803 2933 2803 3043 
L 2803 4351 
z
" id="CMR17-53" transform="scale(0.015625)"/>
       <path d="M 710 1165 
C 832 1068 1043 960 1299 960 
C 1805 960 2240 1359 2240 1895 
C 2240 2063 2189 2321 1997 2521 
C 2176 2713 2438 2777 2586 2777 
C 2611 2777 2650 2777 2682 2758 
C 2656 2751 2598 2726 2598 2623 
C 2598 2540 2656 2483 2739 2483 
C 2835 2483 2886 2547 2886 2630 
C 2886 2751 2790 2880 2586 2880 
C 2330 2880 2106 2758 1926 2591 
C 1734 2764 1504 2828 1299 2828 
C 794 2828 358 2431 358 1895 
C 358 1527 570 1294 634 1230 
C 442 1004 442 742 442 710 
C 442 544 506 300 723 166 
C 390 82 128 -184 128 -517 
C 128 -996 736 -1344 1466 -1344 
C 2170 -1344 2803 -1009 2803 -510 
C 2803 384 1856 384 1363 384 
C 1216 384 954 384 922 390 
C 723 422 589 601 589 825 
C 589 883 589 1024 710 1165 
z
M 1299 1068 
C 736 1068 736 1766 736 1895 
C 736 2024 736 2719 1299 2719 
C 1862 2719 1862 2024 1862 1895 
C 1862 1766 1862 1068 1299 1068 
z
M 1466 -1236 
C 826 -1236 384 -883 384 -517 
C 384 -311 493 -118 634 -11 
C 794 102 858 102 1293 102 
C 1818 102 2547 102 2547 -517 
C 2547 -883 2106 -1236 1466 -1236 
z
" id="CMR17-67" transform="scale(0.015625)"/>
       <path d="M 2656 1954 
C 2656 2282 2592 2816 1837 2816 
C 1312 2816 1056 2392 979 2179 
L 973 2179 
L 973 4416 
L 211 4345 
L 211 4179 
C 589 4179 646 4141 646 3843 
L 646 443 
C 646 198 621 166 211 166 
L 211 0 
C 365 12 646 12 813 12 
C 979 12 1267 12 1421 0 
L 1421 166 
C 1011 166 986 192 986 443 
L 986 1678 
C 986 2269 1344 2713 1792 2713 
C 2266 2713 2317 2289 2317 1980 
L 2317 443 
C 2317 198 2291 166 1882 166 
L 1882 0 
C 2035 12 2317 12 2483 12 
C 2650 12 2938 12 3091 0 
L 3091 166 
C 2682 166 2656 192 2656 443 
L 2656 1954 
z
" id="CMR17-68" transform="scale(0.015625)"/>
       <path d="M 3962 3644 
C 4179 3987 4378 4140 4704 4166 
C 4768 4172 4819 4172 4819 4287 
C 4819 4313 4806 4352 4749 4352 
C 4634 4352 4358 4339 4243 4339 
C 4058 4339 3866 4352 3686 4352 
C 3635 4352 3571 4352 3571 4230 
C 3571 4172 3629 4166 3654 4166 
C 3891 4146 3917 4032 3917 3956 
C 3917 3860 3827 3714 3821 3708 
L 1811 540 
L 1363 3968 
C 1363 4153 1696 4166 1766 4166 
C 1862 4166 1920 4166 1920 4287 
C 1920 4352 1850 4352 1830 4352 
C 1722 4352 1594 4339 1485 4339 
L 1126 4339 
C 659 4339 467 4352 461 4352 
C 422 4352 346 4352 346 4236 
C 346 4166 390 4166 493 4166 
C 819 4166 838 4108 858 3949 
L 1370 25 
C 1389 -109 1389 -128 1478 -128 
C 1555 -128 1587 -109 1651 -7 
L 3962 3644 
z
" id="CMMI12-56" transform="scale(0.015625)"/>
       <path d="M 2746 4563 
C 2746 4569 2784 4665 2784 4678 
C 2784 4755 2720 4800 2669 4800 
C 2637 4800 2579 4800 2528 4659 
L 384 -1364 
C 384 -1370 346 -1466 346 -1479 
C 346 -1556 410 -1600 461 -1600 
C 499 -1600 557 -1594 602 -1460 
L 2746 4563 
z
" id="CMMI12-3d" transform="scale(0.015625)"/>
       <path d="M 3418 3911 
C 3469 4102 3482 4166 3795 4166 
C 3898 4166 3962 4166 3962 4281 
C 3962 4352 3904 4352 3878 4352 
C 3770 4352 3648 4339 3533 4339 
L 3181 4339 
C 2912 4339 2630 4352 2362 4352 
C 2304 4352 2227 4352 2227 4236 
C 2227 4172 2278 4172 2278 4166 
L 2438 4166 
C 2950 4166 2950 4115 2950 4019 
C 2950 4013 2950 3968 2925 3866 
L 2189 953 
C 2022 304 1594 0 1286 0 
C 1069 0 762 99 685 428 
C 710 422 742 415 768 415 
C 979 415 1146 601 1146 787 
C 1146 889 1082 1024 890 1024 
C 774 1024 506 959 506 543 
C 506 149 838 -128 1299 -128 
C 1882 -128 2509 304 2662 908 
L 3418 3911 
z
" id="CMMI12-4a" transform="scale(0.015625)"/>
      </defs>
      <use transform="scale(0.996264)" xlink:href="#CMR17-49"/>
      <use transform="translate(32.638409 0)scale(0.996264)" xlink:href="#CMR17-6e"/>
      <use transform="translate(80.931325 0)scale(0.996264)" xlink:href="#CMR17-74"/>
      <use transform="translate(116.212093 0)scale(0.996264)" xlink:href="#CMR17-65"/>
      <use transform="translate(156.697753 0)scale(0.996264)" xlink:href="#CMR17-72"/>
      <use transform="translate(191.978521 0)scale(0.996264)" xlink:href="#CMR17-61"/>
      <use transform="translate(237.668998 0)scale(0.996264)" xlink:href="#CMR17-63"/>
      <use transform="translate(278.154659 0)scale(0.996264)" xlink:href="#CMR17-74"/>
      <use transform="translate(313.435426 0)scale(0.996264)" xlink:href="#CMR17-69"/>
      <use transform="translate(338.306485 0)scale(0.996264)" xlink:href="#CMR17-6f"/>
      <use transform="translate(383.996962 0)scale(0.996264)" xlink:href="#CMR17-6e"/>
      <use transform="translate(464.968298 0)scale(0.996264)" xlink:href="#CMR17-53"/>
      <use transform="translate(515.863668 0)scale(0.996264)" xlink:href="#CMR17-74"/>
      <use transform="translate(551.144436 0)scale(0.996264)" xlink:href="#CMR17-72"/>
      <use transform="translate(586.425204 0)scale(0.996264)" xlink:href="#CMR17-65"/>
      <use transform="translate(626.910864 0)scale(0.996264)" xlink:href="#CMR17-6e"/>
      <use transform="translate(677.806234 0)scale(0.996264)" xlink:href="#CMR17-67"/>
      <use transform="translate(723.496711 0)scale(0.996264)" xlink:href="#CMR17-74"/>
      <use transform="translate(758.777479 0)scale(0.996264)" xlink:href="#CMR17-68"/>
      <use transform="translate(901.053894 0)scale(0.996264)" xlink:href="#CMMI12-56"/>
      <use transform="translate(968.762344 0)scale(0.996264)" xlink:href="#CMMI12-3d"/>
      <use transform="translate(1017.537263 0)scale(0.996264)" xlink:href="#CMMI12-4a"/>
     </g>
    </g>
   </g>
   <g id="matplotlib.axis_2">
    <g id="ytick_1">
     <g id="line2d_8">
      <defs>
       <path d="M 0 0 
L -2 0 
" id="m0d6029bfea" style="stroke:#000000;stroke-width:0.35;"/>
      </defs>
      <g>
       <use style="stroke:#000000;stroke-width:0.35;" x="35.255901" xlink:href="#m0d6029bfea" y="120.449438"/>
      </g>
     </g>
     <g id="text_8">
      <!-- $\mathdefault{0.000}$ -->
      <g transform="translate(10.966845 123.216839)scale(0.08 -0.08)">
       <use transform="scale(0.996264)" xlink:href="#CMR17-30"/>
       <use transform="translate(45.690477 0)scale(0.996264)" xlink:href="#CMMI12-3a"/>
       <use transform="translate(72.787654 0)scale(0.996264)" xlink:href="#CMR17-30"/>
       <use transform="translate(118.478131 0)scale(0.996264)" xlink:href="#CMR17-30"/>
       <use transform="translate(164.168608 0)scale(0.996264)" xlink:href="#CMR17-30"/>
      </g>
     </g>
    </g>
    <g id="ytick_2">
     <g id="line2d_9">
      <g>
       <use style="stroke:#000000;stroke-width:0.35;" x="35.255901" xlink:href="#m0d6029bfea" y="102.029524"/>
      </g>
     </g>
     <g id="text_9">
      <!-- $\mathdefault{0.002}$ -->
      <g transform="translate(10.966845 104.796925)scale(0.08 -0.08)">
       <use transform="scale(0.996264)" xlink:href="#CMR17-30"/>
       <use transform="translate(45.690477 0)scale(0.996264)" xlink:href="#CMMI12-3a"/>
       <use transform="translate(72.787654 0)scale(0.996264)" xlink:href="#CMR17-30"/>
       <use transform="translate(118.478131 0)scale(0.996264)" xlink:href="#CMR17-30"/>
       <use transform="translate(164.168608 0)scale(0.996264)" xlink:href="#CMR17-32"/>
      </g>
     </g>
    </g>
    <g id="ytick_3">
     <g id="line2d_10">
      <g>
       <use style="stroke:#000000;stroke-width:0.35;" x="35.255901" xlink:href="#m0d6029bfea" y="83.609611"/>
      </g>
     </g>
     <g id="text_10">
      <!-- $\mathdefault{0.004}$ -->
      <g transform="translate(10.966845 86.377012)scale(0.08 -0.08)">
       <use transform="scale(0.996264)" xlink:href="#CMR17-30"/>
       <use transform="translate(45.690477 0)scale(0.996264)" xlink:href="#CMMI12-3a"/>
       <use transform="translate(72.787654 0)scale(0.996264)" xlink:href="#CMR17-30"/>
       <use transform="translate(118.478131 0)scale(0.996264)" xlink:href="#CMR17-30"/>
       <use transform="translate(164.168608 0)scale(0.996264)" xlink:href="#CMR17-34"/>
      </g>
     </g>
    </g>
    <g id="ytick_4">
     <g id="line2d_11">
      <g>
       <use style="stroke:#000000;stroke-width:0.35;" x="35.255901" xlink:href="#m0d6029bfea" y="65.189697"/>
      </g>
     </g>
     <g id="text_11">
      <!-- $\mathdefault{0.006}$ -->
      <g transform="translate(10.966845 67.957098)scale(0.08 -0.08)">
       <use transform="scale(0.996264)" xlink:href="#CMR17-30"/>
       <use transform="translate(45.690477 0)scale(0.996264)" xlink:href="#CMMI12-3a"/>
       <use transform="translate(72.787654 0)scale(0.996264)" xlink:href="#CMR17-30"/>
       <use transform="translate(118.478131 0)scale(0.996264)" xlink:href="#CMR17-30"/>
       <use transform="translate(164.168608 0)scale(0.996264)" xlink:href="#CMR17-36"/>
      </g>
     </g>
    </g>
    <g id="ytick_5">
     <g id="line2d_12">
      <g>
       <use style="stroke:#000000;stroke-width:0.35;" x="35.255901" xlink:href="#m0d6029bfea" y="46.769784"/>
      </g>
     </g>
     <g id="text_12">
      <!-- $\mathdefault{0.008}$ -->
      <g transform="translate(10.966845 49.537185)scale(0.08 -0.08)">
       <defs>
        <path d="M 1741 2289 
C 2144 2494 2554 2803 2554 3298 
C 2554 3884 1990 4224 1472 4224 
C 890 4224 378 3800 378 3215 
C 378 3054 416 2777 666 2533 
C 730 2469 998 2276 1171 2154 
C 883 2006 211 1652 211 945 
C 211 282 838 -128 1459 -128 
C 2144 -128 2720 366 2720 1022 
C 2720 1607 2330 1877 2074 2051 
L 1741 2289 
z
M 902 2855 
C 851 2887 595 3086 595 3388 
C 595 3781 998 4076 1459 4076 
C 1965 4076 2336 3716 2336 3298 
C 2336 2700 1670 2359 1638 2359 
C 1632 2359 1626 2359 1574 2398 
L 902 2855 
z
M 2080 1536 
C 2176 1466 2483 1253 2483 861 
C 2483 385 2010 25 1472 25 
C 890 25 448 443 448 951 
C 448 1459 838 1884 1280 2083 
L 2080 1536 
z
" id="CMR17-38" transform="scale(0.015625)"/>
       </defs>
       <use transform="scale(0.996264)" xlink:href="#CMR17-30"/>
       <use transform="translate(45.690477 0)scale(0.996264)" xlink:href="#CMMI12-3a"/>
       <use transform="translate(72.787654 0)scale(0.996264)" xlink:href="#CMR17-30"/>
       <use transform="translate(118.478131 0)scale(0.996264)" xlink:href="#CMR17-30"/>
       <use transform="translate(164.168608 0)scale(0.996264)" xlink:href="#CMR17-38"/>
      </g>
     </g>
    </g>
    <g id="ytick_6">
     <g id="line2d_13">
      <g>
       <use style="stroke:#000000;stroke-width:0.35;" x="35.255901" xlink:href="#m0d6029bfea" y="28.34987"/>
      </g>
     </g>
     <g id="text_13">
      <!-- $\mathdefault{0.010}$ -->
      <g transform="translate(10.966845 31.117271)scale(0.08 -0.08)">
       <defs>
        <path d="M 1702 4083 
C 1702 4217 1696 4224 1606 4224 
C 1357 3927 979 3833 621 3820 
C 602 3820 570 3820 563 3808 
C 557 3795 557 3782 557 3648 
C 755 3648 1088 3686 1344 3839 
L 1344 467 
C 1344 243 1331 166 781 166 
L 589 166 
L 589 0 
C 896 6 1216 12 1523 12 
C 1830 12 2150 6 2458 0 
L 2458 166 
L 2266 166 
C 1715 166 1702 236 1702 467 
L 1702 4083 
z
" id="CMR17-31" transform="scale(0.015625)"/>
       </defs>
       <use transform="scale(0.996264)" xlink:href="#CMR17-30"/>
       <use transform="translate(45.690477 0)scale(0.996264)" xlink:href="#CMMI12-3a"/>
       <use transform="translate(72.787654 0)scale(0.996264)" xlink:href="#CMR17-30"/>
       <use transform="translate(118.478131 0)scale(0.996264)" xlink:href="#CMR17-31"/>
       <use transform="translate(164.168608 0)scale(0.996264)" xlink:href="#CMR17-30"/>
      </g>
     </g>
    </g>
    <g id="ytick_7">
     <g id="line2d_14">
      <g>
       <use style="stroke:#000000;stroke-width:0.35;" x="35.255901" xlink:href="#m0d6029bfea" y="9.929957"/>
      </g>
     </g>
     <g id="text_14">
      <!-- $\mathdefault{0.012}$ -->
      <g transform="translate(10.966845 12.697358)scale(0.08 -0.08)">
       <use transform="scale(0.996264)" xlink:href="#CMR17-30"/>
       <use transform="translate(45.690477 0)scale(0.996264)" xlink:href="#CMMI12-3a"/>
       <use transform="translate(72.787654 0)scale(0.996264)" xlink:href="#CMR17-30"/>
       <use transform="translate(118.478131 0)scale(0.996264)" xlink:href="#CMR17-31"/>
       <use transform="translate(164.168608 0)scale(0.996264)" xlink:href="#CMR17-32"/>
      </g>
     </g>
    </g>
    <g id="text_15">
     <!-- Boson Occupation$\quad \langle n_{q\to0} \rangle$ -->
     <g transform="translate(6.697584 113.900797)rotate(-90)scale(0.08 -0.08)">
      <defs>
       <path d="M 333 4352 
L 333 4185 
C 774 4185 845 4185 845 3897 
L 845 451 
C 845 166 774 166 333 166 
L 333 0 
L 2534 0 
C 3354 0 3885 578 3885 1155 
C 3885 1726 3360 2214 2675 2259 
C 3290 2380 3718 2790 3718 3276 
C 3718 3808 3194 4352 2368 4352 
L 333 4352 
z
M 1248 2304 
L 1248 3936 
C 1248 4153 1261 4185 1517 4185 
L 2336 4185 
C 2970 4185 3251 3673 3251 3276 
C 3251 2790 2861 2304 2170 2304 
L 1248 2304 
z
M 1517 166 
C 1261 166 1248 198 1248 413 
L 1248 2201 
L 2432 2201 
C 3091 2201 3411 1624 3411 1161 
C 3411 698 3046 166 2349 166 
L 1517 166 
z
" id="CMR17-42" transform="scale(0.015625)"/>
       <path d="M 1978 2688 
C 1978 2803 1971 2809 1933 2809 
C 1907 2809 1901 2803 1824 2707 
C 1805 2681 1747 2617 1728 2592 
C 1523 2809 1235 2816 1126 2816 
C 416 2816 160 2444 160 2073 
C 160 1497 813 1363 998 1324 
C 1402 1241 1542 1216 1677 1100 
C 1760 1024 1901 883 1901 652 
C 1901 384 1747 38 1158 38 
C 602 38 403 460 288 1024 
C 269 1113 269 1120 218 1120 
C 166 1120 160 1113 160 985 
L 160 64 
C 160 -52 166 -58 205 -58 
C 237 -58 243 -52 275 0 
C 314 57 410 211 448 275 
C 576 102 800 -64 1158 -64 
C 1792 -64 2131 281 2131 780 
C 2131 1107 1958 1280 1875 1356 
C 1683 1555 1459 1600 1190 1651 
C 838 1728 390 1817 390 2208 
C 390 2374 480 2726 1126 2726 
C 1811 2726 1850 2086 1862 1881 
C 1869 1849 1901 1843 1920 1843 
C 1978 1843 1978 1862 1978 1971 
L 1978 2688 
z
" id="CMR17-73" transform="scale(0.015625)"/>
       <path d="M 4307 2166 
C 4307 3488 3366 4480 2304 4480 
C 1216 4480 294 3475 294 2166 
C 294 857 1229 -128 2298 -128 
C 3392 -128 4307 876 4307 2166 
z
M 2304 -13 
C 1574 -13 781 722 781 2250 
C 781 3771 1651 4364 2298 4364 
C 2976 4364 3821 3752 3821 2250 
C 3821 696 3008 -13 2304 -13 
z
" id="CMR17-4f" transform="scale(0.015625)"/>
       <path d="M 1882 2745 
L 1882 2579 
C 2259 2579 2317 2540 2317 2229 
L 2317 1053 
C 2317 510 2029 38 1555 38 
C 1030 38 986 355 986 691 
L 986 2816 
L 211 2745 
L 211 2579 
C 467 2579 640 2579 646 2320 
L 646 1079 
C 646 646 646 368 813 187 
C 896 103 1056 -64 1517 -64 
C 2061 -64 2272 400 2323 536 
L 2330 536 
L 2330 -64 
L 3091 -13 
L 3091 154 
C 2714 154 2656 193 2656 503 
L 2656 2816 
L 1882 2745 
z
" id="CMR17-75" transform="scale(0.015625)"/>
       <path d="M 1408 -1114 
C 998 -1114 973 -1088 973 -834 
L 973 380 
C 1158 109 1427 -64 1766 -64 
C 2406 -64 3053 503 3053 1382 
C 3053 2196 2496 2816 1837 2816 
C 1453 2816 1139 2603 960 2345 
L 960 2816 
L 198 2745 
L 198 2577 
C 576 2577 634 2539 634 2228 
L 634 -834 
C 634 -1081 608 -1114 198 -1114 
L 198 -1280 
C 352 -1268 634 -1268 800 -1268 
C 966 -1268 1254 -1268 1408 -1280 
L 1408 -1114 
z
M 973 2015 
C 973 2106 973 2241 1222 2481 
C 1254 2506 1472 2700 1792 2700 
C 2259 2700 2643 2112 2643 1376 
C 2643 639 2234 38 1728 38 
C 1498 38 1248 148 1056 451 
C 973 594 973 632 973 736 
L 973 2015 
z
" id="CMR17-70" transform="scale(0.015625)"/>
       <path d="M 2099 4557 
C 2131 4627 2131 4640 2131 4672 
C 2131 4742 2074 4800 2003 4800 
C 1946 4800 1901 4768 1856 4653 
L 736 1715 
C 723 1677 704 1638 704 1600 
C 704 1580 704 1568 736 1491 
L 1856 -1447 
C 1882 -1517 1914 -1600 2003 -1600 
C 2074 -1600 2131 -1543 2131 -1472 
C 2131 -1453 2131 -1440 2099 -1370 
L 966 1600 
L 2099 4557 
z
" id="CMSY10-68" transform="scale(0.015625)"/>
       <path d="M 1318 1870 
C 1331 1909 1491 2228 1728 2432 
C 1894 2585 2112 2687 2362 2687 
C 2618 2687 2707 2496 2707 2241 
C 2707 1877 2445 1149 2317 804 
C 2259 651 2227 568 2227 453 
C 2227 166 2426 -64 2733 -64 
C 3328 -64 3552 874 3552 913 
C 3552 945 3526 970 3488 970 
C 3430 970 3424 951 3392 842 
C 3245 319 3002 64 2752 64 
C 2688 64 2586 70 2586 274 
C 2586 434 2656 625 2694 715 
C 2822 1066 3091 1781 3091 2145 
C 3091 2528 2867 2816 2381 2816 
C 1811 2816 1510 2413 1395 2253 
C 1376 2617 1114 2816 832 2816 
C 627 2816 486 2694 378 2477 
C 262 2247 173 1864 173 1838 
C 173 1813 198 1781 243 1781 
C 294 1781 301 1787 339 1934 
C 442 2324 557 2687 813 2687 
C 960 2687 1011 2585 1011 2394 
C 1011 2253 947 2004 902 1807 
L 723 1117 
C 698 996 627 708 595 593 
C 550 427 480 127 480 95 
C 480 6 550 -64 646 -64 
C 723 -64 813 -26 864 70 
C 877 102 934 325 966 453 
L 1107 1028 
L 1318 1870 
z
" id="CMMI12-6e" transform="scale(0.015625)"/>
       <path d="M 2822 2751 
C 2822 2783 2797 2809 2765 2809 
C 2714 2809 2464 2579 2342 2356 
C 2227 2643 2029 2816 1754 2816 
C 1030 2816 250 1883 250 938 
C 250 306 621 -64 1056 -64 
C 1395 -64 1677 191 1811 338 
L 1818 332 
L 1574 -613 
L 1517 -838 
C 1459 -1025 1363 -1025 1062 -1031 
C 992 -1031 928 -1031 928 -1152 
C 928 -1197 966 -1216 1011 -1216 
C 1101 -1216 1216 -1204 1306 -1204 
L 1958 -1204 
C 2054 -1204 2163 -1216 2259 -1216 
C 2298 -1216 2374 -1216 2374 -1095 
C 2374 -1031 2323 -1031 2227 -1031 
C 1926 -1031 1907 -987 1907 -937 
C 1907 -906 1914 -900 1933 -819 
L 2822 2751 
z
M 1920 759 
C 1888 651 1888 638 1798 517 
C 1658 338 1376 64 1075 64 
C 813 64 666 300 666 676 
C 666 1028 864 1743 986 2011 
C 1203 2458 1504 2687 1754 2687 
C 2176 2687 2259 2164 2259 2113 
C 2259 2107 2240 2024 2234 2011 
L 1920 759 
z
" id="CMMI12-71" transform="scale(0.015625)"/>
       <path d="M 5338 1472 
C 4986 1203 4813 940 4762 857 
C 4474 415 4422 12 4422 6 
C 4422 -71 4499 -71 4550 -71 
C 4659 -71 4666 -58 4691 57 
C 4838 684 5216 1222 5939 1516 
C 6016 1542 6035 1555 6035 1600 
C 6035 1644 5997 1664 5984 1670 
C 5702 1779 4928 2099 4685 3174 
C 4666 3251 4659 3270 4550 3270 
C 4499 3270 4422 3270 4422 3193 
C 4422 3180 4480 2777 4749 2348 
C 4877 2156 5062 1932 5338 1728 
L 582 1728 
C 467 1728 352 1728 352 1600 
C 352 1472 467 1472 582 1472 
L 5338 1472 
z
" id="CMSY10-21" transform="scale(0.015625)"/>
       <path d="M 1747 1491 
C 1779 1568 1779 1580 1779 1600 
C 1779 1619 1779 1632 1747 1709 
L 627 4653 
C 589 4761 550 4800 480 4800 
C 410 4800 352 4742 352 4672 
C 352 4653 352 4640 384 4569 
L 1517 1600 
L 384 -1357 
C 352 -1428 352 -1440 352 -1472 
C 352 -1543 410 -1600 480 -1600 
C 563 -1600 589 -1536 614 -1472 
L 1747 1491 
z
" id="CMSY10-69" transform="scale(0.015625)"/>
      </defs>
      <use transform="scale(0.996264)" xlink:href="#CMR17-42"/>
      <use transform="translate(65.188754 0)scale(0.996264)" xlink:href="#CMR17-6f"/>
      <use transform="translate(110.879232 0)scale(0.996264)" xlink:href="#CMR17-73"/>
      <use transform="translate(146.680569 0)scale(0.996264)" xlink:href="#CMR17-6f"/>
      <use transform="translate(192.371046 0)scale(0.996264)" xlink:href="#CMR17-6e"/>
      <use transform="translate(273.342382 0)scale(0.996264)" xlink:href="#CMR17-4f"/>
      <use transform="translate(345.057171 0)scale(0.996264)" xlink:href="#CMR17-63"/>
      <use transform="translate(385.542831 0)scale(0.996264)" xlink:href="#CMR17-63"/>
      <use transform="translate(426.028492 0)scale(0.996264)" xlink:href="#CMR17-75"/>
      <use transform="translate(476.923862 0)scale(0.996264)" xlink:href="#CMR17-70"/>
      <use transform="translate(527.819231 0)scale(0.996264)" xlink:href="#CMR17-61"/>
      <use transform="translate(573.509708 0)scale(0.996264)" xlink:href="#CMR17-74"/>
      <use transform="translate(608.790476 0)scale(0.996264)" xlink:href="#CMR17-69"/>
      <use transform="translate(633.661535 0)scale(0.996264)" xlink:href="#CMR17-6f"/>
      <use transform="translate(679.352012 0)scale(0.996264)" xlink:href="#CMR17-6e"/>
      <use transform="translate(821.628427 0)scale(0.996264)" xlink:href="#CMSY10-68"/>
      <use transform="translate(860.372161 0)scale(0.996264)" xlink:href="#CMMI12-6e"/>
      <use transform="translate(918.602208 -14.943915)scale(0.697382)" xlink:href="#CMMI12-71"/>
      <use transform="translate(951.380474 -14.943915)scale(0.697382)" xlink:href="#CMSY10-21"/>
      <use transform="translate(1021.118848 -14.943915)scale(0.697382)" xlink:href="#CMR17-30"/>
      <use transform="translate(1053.600162 0)scale(0.996264)" xlink:href="#CMSY10-69"/>
     </g>
    </g>
   </g>
   <g id="LineCollection_1">
    <path clip-path="url(#p2c1f86826b)" d="M 94.1399 116.364137 
L 94.1399 113.509419 
" style="fill:none;stroke:#9e0142;stroke-width:0.5;"/>
   </g>
   <g id="LineCollection_2">
    <path clip-path="url(#p2c1f86826b)" d="M 140.627268 114.939406 
L 140.627268 114.87973 
" style="fill:none;stroke:#f46d43;stroke-width:0.5;"/>
   </g>
   <g id="LineCollection_3">
    <path clip-path="url(#p2c1f86826b)" d="M 78.644111 112.770628 
L 78.644111 102.852159 
" style="fill:none;stroke:#fee08b;stroke-width:0.5;"/>
   </g>
   <g id="LineCollection_4">
    <path clip-path="url(#p2c1f86826b)" d="M 156.123057 107.056669 
L 156.123057 105.648536 
" style="fill:none;stroke:#e6f598;stroke-width:0.5;"/>
   </g>
   <g id="LineCollection_5">
    <path clip-path="url(#p2c1f86826b)" d="M 39.904637 85.458467 
L 39.904637 39.681258 
" style="fill:none;stroke:#66c2a5;stroke-width:0.5;"/>
   </g>
   <g id="LineCollection_6">
    <path clip-path="url(#p2c1f86826b)" d="M 235.926373 22.48332 
L 235.926373 0.698487 
" style="fill:none;stroke:#5e4fa2;stroke-width:0.5;"/>
   </g>
   <g id="line2d_15">
    <path clip-path="url(#p2c1f86826b)" d="M 117.383584 120.449438 
" style="fill:none;stroke:#e377c2;stroke-linecap:round;"/>
    <defs>
     <path d="M 0 1.5 
C 0.397805 1.5 0.77937 1.341951 1.06066 1.06066 
C 1.341951 0.77937 1.5 0.397805 1.5 0 
C 1.5 -0.397805 1.341951 -0.77937 1.06066 -1.06066 
C 0.77937 -1.341951 0.397805 -1.5 0 -1.5 
C -0.397805 -1.5 -0.77937 -1.341951 -1.06066 -1.06066 
C -1.341951 -0.77937 -1.5 -0.397805 -1.5 0 
C -1.5 0.397805 -1.341951 0.77937 -1.06066 1.06066 
C -0.77937 1.341951 -0.397805 1.5 0 1.5 
z
" id="m4429c2a870" style="stroke:#909090;stroke-width:0.5;"/>
    </defs>
    <g clip-path="url(#p2c1f86826b)">
     <use style="fill:#909090;fill-opacity:0.501961;stroke:#909090;stroke-width:0.5;" x="117.383584" xlink:href="#m4429c2a870" y="120.449438"/>
    </g>
   </g>
   <g id="line2d_16">
    <defs>
     <path d="M 0 1.5 
C 0.397805 1.5 0.77937 1.341951 1.06066 1.06066 
C 1.341951 0.77937 1.5 0.397805 1.5 0 
C 1.5 -0.397805 1.341951 -0.77937 1.06066 -1.06066 
C 0.77937 -1.341951 0.397805 -1.5 0 -1.5 
C -0.397805 -1.5 -0.77937 -1.341951 -1.06066 -1.06066 
C -1.341951 -0.77937 -1.5 -0.397805 -1.5 0 
C -1.5 0.397805 -1.341951 0.77937 -1.06066 1.06066 
C -0.77937 1.341951 -0.397805 1.5 0 1.5 
z
" id="mf43642caf7" style="stroke:#9e0142;stroke-width:0.5;"/>
    </defs>
    <g clip-path="url(#p2c1f86826b)">
     <use style="fill:#ce7fa0;fill-opacity:0.501961;stroke:#9e0142;stroke-width:0.5;" x="94.1399" xlink:href="#mf43642caf7" y="114.936778"/>
    </g>
   </g>
   <g id="line2d_17">
    <defs>
     <path d="M 0 1.5 
C 0.397805 1.5 0.77937 1.341951 1.06066 1.06066 
C 1.341951 0.77937 1.5 0.397805 1.5 0 
C 1.5 -0.397805 1.341951 -0.77937 1.06066 -1.06066 
C 0.77937 -1.341951 0.397805 -1.5 0 -1.5 
C -0.397805 -1.5 -0.77937 -1.341951 -1.06066 -1.06066 
C -1.341951 -0.77937 -1.5 -0.397805 -1.5 0 
C -1.5 0.397805 -1.341951 0.77937 -1.06066 1.06066 
C -0.77937 1.341951 -0.397805 1.5 0 1.5 
z
" id="mda3680061e" style="stroke:#f46d43;stroke-width:0.5;"/>
    </defs>
    <g clip-path="url(#p2c1f86826b)">
     <use style="fill:#f9b5a0;fill-opacity:0.501961;stroke:#f46d43;stroke-width:0.5;" x="140.627268" xlink:href="#mda3680061e" y="114.909568"/>
    </g>
   </g>
   <g id="line2d_18">
    <defs>
     <path d="M 0 1.5 
C 0.397805 1.5 0.77937 1.341951 1.06066 1.06066 
C 1.341951 0.77937 1.5 0.397805 1.5 0 
C 1.5 -0.397805 1.341951 -0.77937 1.06066 -1.06066 
C 0.77937 -1.341951 0.397805 -1.5 0 -1.5 
C -0.397805 -1.5 -0.77937 -1.341951 -1.06066 -1.06066 
C -1.341951 -0.77937 -1.5 -0.397805 -1.5 0 
C -1.5 0.397805 -1.341951 0.77937 -1.06066 1.06066 
C -0.77937 1.341951 -0.397805 1.5 0 1.5 
z
" id="m0678dce68d" style="stroke:#fee08b;stroke-width:0.5;"/>
    </defs>
    <g clip-path="url(#p2c1f86826b)">
     <use style="fill:#feefc4;fill-opacity:0.501961;stroke:#fee08b;stroke-width:0.5;" x="78.644111" xlink:href="#m0678dce68d" y="107.811394"/>
    </g>
   </g>
   <g id="line2d_19">
    <defs>
     <path d="M 0 1.5 
C 0.397805 1.5 0.77937 1.341951 1.06066 1.06066 
C 1.341951 0.77937 1.5 0.397805 1.5 0 
C 1.5 -0.397805 1.341951 -0.77937 1.06066 -1.06066 
C 0.77937 -1.341951 0.397805 -1.5 0 -1.5 
C -0.397805 -1.5 -0.77937 -1.341951 -1.06066 -1.06066 
C -1.341951 -0.77937 -1.5 -0.397805 -1.5 0 
C -1.5 0.397805 -1.341951 0.77937 -1.06066 1.06066 
C -0.77937 1.341951 -0.397805 1.5 0 1.5 
z
" id="me0c043ac11" style="stroke:#e6f598;stroke-width:0.5;"/>
    </defs>
    <g clip-path="url(#p2c1f86826b)">
     <use style="fill:#f2f9cb;fill-opacity:0.501961;stroke:#e6f598;stroke-width:0.5;" x="156.123057" xlink:href="#me0c043ac11" y="106.352603"/>
    </g>
   </g>
   <g id="line2d_20">
    <defs>
     <path d="M 0 1.5 
C 0.397805 1.5 0.77937 1.341951 1.06066 1.06066 
C 1.341951 0.77937 1.5 0.397805 1.5 0 
C 1.5 -0.397805 1.341951 -0.77937 1.06066 -1.06066 
C 0.77937 -1.341951 0.397805 -1.5 0 -1.5 
C -0.397805 -1.5 -0.77937 -1.341951 -1.06066 -1.06066 
C -1.341951 -0.77937 -1.5 -0.397805 -1.5 0 
C -1.5 0.397805 -1.341951 0.77937 -1.06066 1.06066 
C -0.77937 1.341951 -0.397805 1.5 0 1.5 
z
" id="mf8a2562598" style="stroke:#66c2a5;stroke-width:0.5;"/>
    </defs>
    <g clip-path="url(#p2c1f86826b)">
     <use style="fill:#b2e0d1;fill-opacity:0.501961;stroke:#66c2a5;stroke-width:0.5;" x="39.904637" xlink:href="#mf8a2562598" y="62.569863"/>
    </g>
   </g>
   <g id="line2d_21">
    <defs>
     <path d="M 0 1.5 
C 0.397805 1.5 0.77937 1.341951 1.06066 1.06066 
C 1.341951 0.77937 1.5 0.397805 1.5 0 
C 1.5 -0.397805 1.341951 -0.77937 1.06066 -1.06066 
C 0.77937 -1.341951 0.397805 -1.5 0 -1.5 
C -0.397805 -1.5 -0.77937 -1.341951 -1.06066 -1.06066 
C -1.341951 -0.77937 -1.5 -0.397805 -1.5 0 
C -1.5 0.397805 -1.341951 0.77937 -1.06066 1.06066 
C -0.77937 1.341951 -0.397805 1.5 0 1.5 
z
" id="me68bf12f14" style="stroke:#5e4fa2;stroke-width:0.5;"/>
    </defs>
    <g clip-path="url(#p2c1f86826b)">
     <use style="fill:#aea6d0;fill-opacity:0.501961;stroke:#5e4fa2;stroke-width:0.5;" x="235.926373" xlink:href="#me68bf12f14" y="11.590904"/>
    </g>
   </g>
   <g id="patch_3">
    <path d="M 35.255901 124.13342 
L 35.255901 0.72 
" style="fill:none;stroke:#000000;stroke-linecap:square;stroke-linejoin:miter;stroke-width:0.35;"/>
   </g>
   <g id="patch_4">
    <path d="M 239.80032 124.13342 
L 239.80032 0.72 
" style="fill:none;stroke:#000000;stroke-linecap:square;stroke-linejoin:miter;stroke-width:0.35;"/>
   </g>
   <g id="patch_5">
    <path d="M 35.255901 124.13342 
L 239.80032 124.13342 
" style="fill:none;stroke:#000000;stroke-linecap:square;stroke-linejoin:miter;stroke-width:0.35;"/>
   </g>
   <g id="patch_6">
    <path d="M 35.255901 0.72 
L 239.80032 0.72 
" style="fill:none;stroke:#000000;stroke-linecap:square;stroke-linejoin:miter;stroke-width:0.35;"/>
   </g>
   <g id="legend_1">
    <g id="line2d_22">
     <path d="M 173.77884 103.433929 
L 179.37884 103.433929 
" style="fill:none;stroke:#808080;stroke-linecap:round;stroke-width:0.75;"/>
    </g>
    <g id="line2d_23"/>
    <g id="text_16">
     <!-- Bethe Ansatz -->
     <g transform="translate(182.57884 106.233929)scale(0.08 -0.08)">
      <defs>
       <path d="M 2323 4441 
C 2291 4524 2278 4544 2214 4544 
C 2150 4544 2138 4524 2106 4441 
L 749 580 
C 627 236 371 166 147 166 
L 147 0 
C 262 12 518 12 640 12 
C 800 12 1056 12 1210 0 
L 1210 166 
C 909 179 864 382 864 459 
C 864 516 877 548 890 586 
L 1229 1536 
L 2906 1536 
L 3290 453 
C 3322 376 3322 363 3322 338 
C 3322 166 3046 166 2925 166 
L 2925 0 
C 3110 12 3443 12 3642 12 
C 3808 12 4128 12 4282 0 
L 4282 166 
C 3942 166 3827 166 3744 402 
L 2323 4441 
z
M 2067 3924 
L 2848 1702 
L 1286 1702 
L 2067 3924 
z
" id="CMR17-41" transform="scale(0.015625)"/>
       <path d="M 2310 2604 
C 2362 2668 2362 2681 2362 2694 
C 2362 2752 2336 2752 2221 2752 
L 275 2752 
L 211 1760 
L 326 1760 
C 371 2380 442 2649 1178 2649 
L 1958 2649 
L 128 96 
C 128 6 134 0 269 0 
L 2291 0 
L 2381 1152 
L 2266 1152 
C 2214 441 2131 115 1350 115 
L 531 115 
L 2310 2604 
z
" id="CMR17-7a" transform="scale(0.015625)"/>
      </defs>
      <use transform="scale(0.996264)" xlink:href="#CMR17-42"/>
      <use transform="translate(65.188754 0)scale(0.996264)" xlink:href="#CMR17-65"/>
      <use transform="translate(105.674415 0)scale(0.996264)" xlink:href="#CMR17-74"/>
      <use transform="translate(140.955183 0)scale(0.996264)" xlink:href="#CMR17-68"/>
      <use transform="translate(191.850552 0)scale(0.996264)" xlink:href="#CMR17-65"/>
      <use transform="translate(262.412179 0)scale(0.996264)" xlink:href="#CMR17-41"/>
      <use transform="translate(331.484609 0)scale(0.996264)" xlink:href="#CMR17-6e"/>
      <use transform="translate(382.379979 0)scale(0.996264)" xlink:href="#CMR17-73"/>
      <use transform="translate(418.181317 0)scale(0.996264)" xlink:href="#CMR17-61"/>
      <use transform="translate(463.871794 0)scale(0.996264)" xlink:href="#CMR17-74"/>
      <use transform="translate(499.152561 0)scale(0.996264)" xlink:href="#CMR17-7a"/>
     </g>
    </g>
    <g id="LineCollection_7">
     <path d="M 176.57884 116.583675 
L 176.57884 108.583675 
" style="fill:none;stroke:#66c2a5;stroke-width:0.5;"/>
    </g>
    <g id="line2d_24"/>
    <g id="line2d_25">
     <g>
      <use style="fill:#b2e0d1;fill-opacity:0.501961;stroke:#66c2a5;stroke-width:0.5;" x="176.57884" xlink:href="#mf8a2562598" y="112.583675"/>
     </g>
    </g>
    <g id="text_17">
     <!-- Exact Diag. -->
     <g transform="translate(182.57884 115.383675)scale(0.08 -0.08)">
      <defs>
       <path d="M 3885 1614 
L 3770 1614 
C 3629 676 3546 166 2419 166 
L 1530 166 
C 1274 166 1261 198 1261 415 
L 1261 2176 
L 1862 2176 
C 2464 2176 2522 1959 2522 1429 
L 2637 1429 
L 2637 3086 
L 2522 3086 
C 2522 2558 2464 2342 1862 2342 
L 1261 2342 
L 1261 3924 
C 1261 4141 1274 4172 1530 4172 
L 2406 4172 
C 3398 4172 3514 3778 3603 2933 
L 3718 2933 
L 3565 4339 
L 326 4339 
L 326 4172 
C 768 4172 838 4172 838 3886 
L 838 453 
C 838 166 768 166 326 166 
L 326 0 
L 3654 0 
L 3885 1614 
z
" id="CMR17-45" transform="scale(0.015625)"/>
       <path d="M 1664 1491 
C 1856 1740 2074 2022 2253 2233 
C 2464 2476 2707 2579 2989 2585 
L 2989 2752 
C 2880 2745 2656 2739 2541 2739 
C 2368 2739 2170 2739 2022 2752 
L 2022 2585 
C 2112 2572 2163 2508 2163 2419 
C 2163 2304 2099 2233 2067 2188 
L 1594 1587 
L 1030 2323 
C 973 2393 973 2406 973 2438 
C 973 2515 1037 2579 1146 2585 
L 1146 2752 
C 992 2739 717 2739 557 2739 
C 384 2739 179 2739 38 2752 
L 38 2585 
C 384 2585 461 2560 614 2368 
L 1350 1414 
C 1363 1401 1395 1363 1395 1344 
C 1395 1318 838 633 768 544 
C 480 198 179 172 6 166 
L 6 0 
C 115 6 339 12 454 12 
C 582 12 864 12 979 0 
L 979 166 
C 941 172 838 185 838 332 
C 838 448 890 518 947 595 
L 1478 1248 
L 2035 524 
C 2086 454 2163 358 2163 313 
C 2163 224 2086 172 1984 166 
L 1984 0 
C 2138 12 2413 12 2573 12 
C 2746 12 2950 12 3091 0 
L 3091 166 
C 2771 166 2675 179 2522 377 
L 1664 1491 
z
" id="CMR17-78" transform="scale(0.015625)"/>
       <path d="M 333 4352 
L 333 4185 
C 774 4185 845 4185 845 3898 
L 845 453 
C 845 166 774 166 333 166 
L 333 0 
L 2368 0 
C 3398 0 4224 943 4224 2140 
C 4224 3344 3411 4352 2368 4352 
L 333 4352 
z
M 1523 166 
C 1267 166 1254 198 1254 414 
L 1254 3936 
C 1254 4153 1267 4185 1523 4185 
L 2240 4185 
C 2771 4185 3750 3873 3750 2140 
C 3750 1242 3488 879 3366 707 
C 3213 510 2848 166 2240 166 
L 1523 166 
z
" id="CMR17-44" transform="scale(0.015625)"/>
       <path d="M 1062 262 
C 1062 422 934 524 800 524 
C 672 524 538 422 538 262 
C 538 102 666 0 800 0 
C 928 0 1062 102 1062 262 
z
" id="CMR17-2e" transform="scale(0.015625)"/>
      </defs>
      <use transform="scale(0.996264)" xlink:href="#CMR17-45"/>
      <use transform="translate(62.586301 0)scale(0.996264)" xlink:href="#CMR17-78"/>
      <use transform="translate(110.879216 0)scale(0.996264)" xlink:href="#CMR17-61"/>
      <use transform="translate(156.569693 0)scale(0.996264)" xlink:href="#CMR17-63"/>
      <use transform="translate(197.055354 0)scale(0.996264)" xlink:href="#CMR17-74"/>
      <use transform="translate(262.412088 0)scale(0.996264)" xlink:href="#CMR17-44"/>
      <use transform="translate(332.805644 0)scale(0.996264)" xlink:href="#CMR17-69"/>
      <use transform="translate(357.676702 0)scale(0.996264)" xlink:href="#CMR17-61"/>
      <use transform="translate(403.36718 0)scale(0.996264)" xlink:href="#CMR17-67"/>
      <use transform="translate(449.057657 0)scale(0.996264)" xlink:href="#CMR17-2e"/>
     </g>
    </g>
   </g>
  </g>
  <g id="axes_2">
   <g id="patch_7">
    <path d="M 90.573782 72.597381 
L 164.209773 72.597381 
L 164.209773 23.232013 
L 90.573782 23.232013 
z
" style="fill:none;"/>
   </g>
   <g id="matplotlib.axis_3">
    <g id="xtick_7">
     <g id="line2d_26">
      <g>
       <use style="stroke:#000000;stroke-width:0.35;" x="93.822429" xlink:href="#m31a277a221" y="72.597381"/>
      </g>
     </g>
     <g id="text_18">
      <!-- $\mathdefault{0.00}$ -->
      <g transform="translate(86.294993 83.132183)scale(0.08 -0.08)">
       <use transform="scale(0.996264)" xlink:href="#CMR17-30"/>
       <use transform="translate(45.690477 0)scale(0.996264)" xlink:href="#CMMI12-3a"/>
       <use transform="translate(72.787654 0)scale(0.996264)" xlink:href="#CMR17-30"/>
       <use transform="translate(118.478131 0)scale(0.996264)" xlink:href="#CMR17-30"/>
      </g>
     </g>
    </g>
    <g id="xtick_8">
     <g id="line2d_27">
      <g>
       <use style="stroke:#000000;stroke-width:0.35;" x="120.894484" xlink:href="#m31a277a221" y="72.597381"/>
      </g>
     </g>
     <g id="text_19">
      <!-- $\mathdefault{0.25}$ -->
      <g transform="translate(113.367048 83.132183)scale(0.08 -0.08)">
       <defs>
        <path d="M 730 3750 
C 794 3724 1056 3641 1325 3641 
C 1920 3641 2246 3961 2432 4140 
C 2432 4191 2432 4224 2394 4224 
C 2387 4224 2374 4224 2323 4198 
C 2099 4102 1837 4032 1517 4032 
C 1325 4032 1037 4055 723 4191 
C 653 4224 640 4224 634 4224 
C 602 4224 595 4217 595 4090 
L 595 2231 
C 595 2113 595 2080 659 2080 
C 691 2080 704 2093 736 2139 
C 941 2435 1222 2560 1542 2560 
C 1766 2560 2246 2415 2246 1293 
C 2246 1087 2246 716 2054 422 
C 1894 159 1645 25 1370 25 
C 947 25 518 319 403 812 
C 429 806 480 793 506 793 
C 589 793 749 838 749 1036 
C 749 1209 627 1280 506 1280 
C 358 1280 262 1190 262 1011 
C 262 454 704 -128 1382 -128 
C 2042 -128 2669 441 2669 1267 
C 2669 2054 2170 2662 1549 2662 
C 1222 2662 947 2540 730 2304 
L 730 3750 
z
" id="CMR17-35" transform="scale(0.015625)"/>
       </defs>
       <use transform="scale(0.996264)" xlink:href="#CMR17-30"/>
       <use transform="translate(45.690477 0)scale(0.996264)" xlink:href="#CMMI12-3a"/>
       <use transform="translate(72.787654 0)scale(0.996264)" xlink:href="#CMR17-32"/>
       <use transform="translate(118.478131 0)scale(0.996264)" xlink:href="#CMR17-35"/>
      </g>
     </g>
    </g>
    <g id="xtick_9">
     <g id="line2d_28">
      <g>
       <use style="stroke:#000000;stroke-width:0.35;" x="147.96654" xlink:href="#m31a277a221" y="72.597381"/>
      </g>
     </g>
     <g id="text_20">
      <!-- $\mathdefault{0.50}$ -->
      <g transform="translate(140.439104 83.132183)scale(0.08 -0.08)">
       <use transform="scale(0.996264)" xlink:href="#CMR17-30"/>
       <use transform="translate(45.690477 0)scale(0.996264)" xlink:href="#CMMI12-3a"/>
       <use transform="translate(72.787654 0)scale(0.996264)" xlink:href="#CMR17-35"/>
       <use transform="translate(118.478131 0)scale(0.996264)" xlink:href="#CMR17-30"/>
      </g>
     </g>
    </g>
    <g id="text_21">
     <!-- $\quad q=2\pi/L$ -->
     <g transform="translate(110.024714 92.659513)scale(0.08 -0.08)">
      <defs>
       <path d="M 4115 2048 
C 4211 2048 4307 2048 4307 2156 
C 4307 2272 4198 2272 4090 2272 
L 512 2272 
C 403 2272 294 2272 294 2156 
C 294 2048 390 2048 486 2048 
L 4115 2048 
z
M 4090 927 
C 4198 927 4307 927 4307 1043 
C 4307 1152 4211 1152 4115 1152 
L 486 1152 
C 390 1152 294 1152 294 1043 
C 294 927 403 927 512 927 
L 4090 927 
z
" id="CMR17-3d" transform="scale(0.015625)"/>
       <path d="M 1658 2406 
L 2381 2406 
C 2208 1691 2099 1225 2099 715 
C 2099 625 2099 -64 2362 -64 
C 2496 -64 2611 57 2611 166 
C 2611 198 2611 210 2566 306 
C 2394 746 2394 1295 2394 1340 
C 2394 1378 2394 1832 2528 2406 
L 3245 2406 
C 3328 2406 3539 2406 3539 2611 
C 3539 2752 3418 2752 3302 2752 
L 1197 2752 
C 1050 2752 832 2752 538 2438 
C 371 2253 166 1915 166 1876 
C 166 1838 198 1825 237 1825 
C 282 1825 288 1844 320 1883 
C 653 2406 986 2406 1146 2406 
L 1510 2406 
C 1370 1927 1210 1372 685 255 
C 634 153 634 140 634 102 
C 634 -32 749 -64 806 -64 
C 992 -64 1043 102 1120 370 
C 1222 695 1222 708 1286 964 
L 1658 2406 
z
" id="CMMI12-19" transform="scale(0.015625)"/>
       <path d="M 2349 3860 
C 2406 4102 2426 4166 2989 4166 
C 3162 4166 3206 4166 3206 4287 
C 3206 4352 3136 4352 3110 4352 
C 2982 4352 2835 4339 2707 4339 
L 1850 4339 
C 1728 4339 1587 4352 1466 4352 
C 1414 4352 1344 4352 1344 4230 
C 1344 4166 1402 4166 1498 4166 
C 1888 4166 1888 4115 1888 4045 
C 1888 4032 1888 3994 1862 3898 
L 998 472 
C 941 249 928 185 480 185 
C 358 185 294 185 294 70 
C 294 0 333 0 461 0 
L 3328 0 
C 3469 0 3475 6 3520 121 
L 4013 1478 
C 4026 1510 4038 1548 4038 1567 
C 4038 1605 4006 1631 3974 1631 
C 3968 1631 3936 1631 3923 1605 
C 3910 1599 3910 1586 3859 1465 
C 3654 905 3366 185 2285 185 
L 1670 185 
C 1581 185 1568 185 1530 191 
C 1459 198 1453 211 1453 262 
C 1453 306 1466 344 1478 402 
L 2349 3860 
z
" id="CMMI12-4c" transform="scale(0.015625)"/>
      </defs>
      <use transform="scale(0.996264)" xlink:href="#CMMI12-71"/>
      <use transform="translate(74.500333 0)scale(0.996264)" xlink:href="#CMR17-3d"/>
      <use transform="translate(173.88913 0)scale(0.996264)" xlink:href="#CMR17-32"/>
      <use transform="translate(219.579607 0)scale(0.996264)" xlink:href="#CMMI12-19"/>
      <use transform="translate(278.490208 0)scale(0.996264)" xlink:href="#CMMI12-3d"/>
      <use transform="translate(327.265126 0)scale(0.996264)" xlink:href="#CMMI12-4c"/>
     </g>
    </g>
   </g>
   <g id="matplotlib.axis_4">
    <g id="ytick_8">
     <g id="line2d_29">
      <g>
       <use style="stroke:#000000;stroke-width:0.35;" x="90.573782" xlink:href="#m0d6029bfea" y="54.962734"/>
      </g>
     </g>
     <g id="text_22">
      <!-- $\mathdefault{10^{-3}}$ -->
      <g transform="translate(67.696364 57.730134)scale(0.08 -0.08)">
       <defs>
        <path d="M 1414 2176 
C 1984 2176 2234 1673 2234 1094 
C 2234 322 1824 25 1453 25 
C 1114 25 563 193 390 691 
C 422 678 454 678 486 678 
C 640 678 755 780 755 947 
C 755 1132 614 1216 486 1216 
C 378 1216 211 1164 211 927 
C 211 335 787 -128 1466 -128 
C 2176 -128 2720 432 2720 1087 
C 2720 1718 2208 2176 1600 2246 
C 2086 2347 2554 2776 2554 3353 
C 2554 3856 2048 4224 1472 4224 
C 890 4224 378 3862 378 3347 
C 378 3123 544 3084 627 3084 
C 762 3084 877 3167 877 3334 
C 877 3500 762 3584 627 3584 
C 602 3584 570 3584 544 3571 
C 730 3999 1235 4076 1459 4076 
C 1683 4076 2106 3966 2106 3347 
C 2106 3167 2080 2851 1862 2574 
C 1670 2329 1453 2316 1242 2297 
C 1210 2297 1062 2284 1037 2284 
C 992 2278 966 2272 966 2227 
C 966 2182 973 2176 1101 2176 
L 1414 2176 
z
" id="CMR17-33" transform="scale(0.015625)"/>
       </defs>
       <use transform="scale(0.996264)" xlink:href="#CMR17-31"/>
       <use transform="translate(45.690477 0)scale(0.996264)" xlink:href="#CMR17-30"/>
       <use transform="translate(91.380954 36.153639)scale(0.697382)" xlink:href="#CMSY10-0"/>
       <use transform="translate(145.621947 36.153639)scale(0.697382)" xlink:href="#CMR17-33"/>
      </g>
     </g>
    </g>
    <g id="ytick_9">
     <g id="line2d_30">
      <g>
       <use style="stroke:#000000;stroke-width:0.35;" x="90.573782" xlink:href="#m0d6029bfea" y="28.493906"/>
      </g>
     </g>
     <g id="text_23">
      <!-- $\mathdefault{10^{-2}}$ -->
      <g transform="translate(67.696364 31.261307)scale(0.08 -0.08)">
       <use transform="scale(0.996264)" xlink:href="#CMR17-31"/>
       <use transform="translate(45.690477 0)scale(0.996264)" xlink:href="#CMR17-30"/>
       <use transform="translate(91.380954 36.153639)scale(0.697382)" xlink:href="#CMSY10-0"/>
       <use transform="translate(145.621947 36.153639)scale(0.697382)" xlink:href="#CMR17-32"/>
      </g>
     </g>
    </g>
    <g id="ytick_10">
     <g id="line2d_31"/>
    </g>
    <g id="ytick_11">
     <g id="line2d_32"/>
    </g>
    <g id="ytick_12">
     <g id="line2d_33"/>
    </g>
    <g id="ytick_13">
     <g id="line2d_34"/>
    </g>
    <g id="ytick_14">
     <g id="line2d_35"/>
    </g>
    <g id="ytick_15">
     <g id="line2d_36"/>
    </g>
    <g id="ytick_16">
     <g id="line2d_37"/>
    </g>
    <g id="ytick_17">
     <g id="line2d_38"/>
    </g>
    <g id="ytick_18">
     <g id="line2d_39"/>
    </g>
    <g id="ytick_19">
     <g id="line2d_40"/>
    </g>
    <g id="ytick_20">
     <g id="line2d_41"/>
    </g>
    <g id="ytick_21">
     <g id="line2d_42"/>
    </g>
    <g id="ytick_22">
     <g id="line2d_43"/>
    </g>
    <g id="ytick_23">
     <g id="line2d_44"/>
    </g>
    <g id="ytick_24">
     <g id="line2d_45"/>
    </g>
    <g id="text_24">
     <!-- $\left\langle n_{q={2\pi}/{L}}\right\rangle$ -->
     <g transform="translate(62.46404 67.649187)rotate(-90)scale(0.08 -0.08)">
      <defs>
       <path d="M 2246 -7284 
C 2291 -7386 2310 -7424 2387 -7424 
C 2458 -7424 2515 -7367 2515 -7296 
C 2515 -7290 2515 -7258 2477 -7175 
L 896 -3584 
L 2477 6 
C 2515 90 2515 122 2515 128 
C 2515 198 2458 256 2387 256 
C 2304 256 2285 204 2246 122 
L 666 -3463 
C 627 -3546 627 -3578 627 -3584 
C 627 -3591 627 -3623 666 -3706 
L 2246 -7284 
z
" id="CMEX10-a" transform="scale(0.015625)"/>
       <path d="M 2118 -3584 
L 538 -7175 
C 499 -7258 499 -7290 499 -7296 
C 499 -7367 557 -7424 627 -7424 
C 710 -7424 730 -7373 768 -7290 
L 2349 -3706 
C 2387 -3623 2387 -3591 2387 -3584 
C 2387 -3578 2387 -3546 2349 -3463 
L 768 115 
C 723 217 704 256 627 256 
C 557 256 499 198 499 128 
C 499 122 499 90 538 6 
L 2118 -3584 
z
" id="CMEX10-b" transform="scale(0.015625)"/>
      </defs>
      <use transform="translate(0 80.698084)scale(0.996264)" xlink:href="#CMEX10-a"/>
      <use transform="translate(47.04599 0)scale(0.996264)" xlink:href="#CMMI12-6e"/>
      <use transform="translate(105.276037 -17.987904)scale(0.697382)" xlink:href="#CMMI12-71"/>
      <use transform="translate(138.054303 -17.987904)scale(0.697382)" xlink:href="#CMR17-3d"/>
      <use transform="translate(188.254434 -17.987904)scale(0.697382)" xlink:href="#CMR17-32"/>
      <use transform="translate(220.237616 -17.987904)scale(0.697382)" xlink:href="#CMMI12-19"/>
      <use transform="translate(261.474837 -17.987904)scale(0.697382)" xlink:href="#CMMI12-3d"/>
      <use transform="translate(295.617129 -17.987904)scale(0.697382)" xlink:href="#CMMI12-4c"/>
      <use transform="translate(342.574674 80.698084)scale(0.996264)" xlink:href="#CMEX10-b"/>
     </g>
    </g>
   </g>
   <g id="LineCollection_8">
    <path clip-path="url(#pc3407d14e1)" d="M 178.8718 68.42084 
L 178.8718 67.352863 
" style="fill:none;stroke:#9e0142;stroke-width:0.4;"/>
    <path clip-path="url(#pc3407d14e1)" d="M 161.861925 65.886001 
L 161.861925 65.727536 
" style="fill:none;stroke:#9e0142;stroke-width:0.4;"/>
    <path clip-path="url(#pc3407d14e1)" d="M 150.522009 63.030811 
L 150.522009 62.697967 
" style="fill:none;stroke:#9e0142;stroke-width:0.4;"/>
    <path clip-path="url(#pc3407d14e1)" d="M 142.422069 64.030798 
L 142.422069 62.34396 
" style="fill:none;stroke:#9e0142;stroke-width:0.4;"/>
    <path clip-path="url(#pc3407d14e1)" d="M 136.347114 63.748777 
L 136.347114 63.69463 
" style="fill:none;stroke:#9e0142;stroke-width:0.4;"/>
    <path clip-path="url(#pc3407d14e1)" d="M 131.622149 64.81968 
L 131.622149 64.611104 
" style="fill:none;stroke:#9e0142;stroke-width:0.4;"/>
    <path clip-path="url(#pc3407d14e1)" d="M 127.842177 65.162576 
L 127.842177 64.151419 
" style="fill:none;stroke:#9e0142;stroke-width:0.4;"/>
    <path clip-path="url(#pc3407d14e1)" d="M 124.749473 64.4073 
L 124.749473 62.783722 
" style="fill:none;stroke:#9e0142;stroke-width:0.4;"/>
    <path clip-path="url(#pc3407d14e1)" d="M 122.172219 63.67328 
L 122.172219 62.030923 
" style="fill:none;stroke:#9e0142;stroke-width:0.4;"/>
    <path clip-path="url(#pc3407d14e1)" d="M 119.991466 64.081003 
L 119.991466 62.308853 
" style="fill:none;stroke:#9e0142;stroke-width:0.4;"/>
   </g>
   <g id="LineCollection_9">
    <path clip-path="url(#pc3407d14e1)" d="M 93.822429 64.307117 
L 93.822429 58.215672 
" style="fill:none;stroke:#9e0142;stroke-width:0.4;"/>
   </g>
   <g id="LineCollection_10">
    <path clip-path="url(#pc3407d14e1)" d="M 178.8718 70.353501 
L 178.8718 68.619895 
" style="fill:none;stroke:#f46d43;stroke-width:0.4;"/>
    <path clip-path="url(#pc3407d14e1)" d="M 161.861925 67.392447 
L 161.861925 66.94738 
" style="fill:none;stroke:#f46d43;stroke-width:0.4;"/>
    <path clip-path="url(#pc3407d14e1)" d="M 150.522009 64.782496 
L 150.522009 64.517218 
" style="fill:none;stroke:#f46d43;stroke-width:0.4;"/>
    <path clip-path="url(#pc3407d14e1)" d="M 142.422069 63.98533 
L 142.422069 62.923986 
" style="fill:none;stroke:#f46d43;stroke-width:0.4;"/>
    <path clip-path="url(#pc3407d14e1)" d="M 136.347114 64.227666 
L 136.347114 62.896649 
" style="fill:none;stroke:#f46d43;stroke-width:0.4;"/>
    <path clip-path="url(#pc3407d14e1)" d="M 131.622149 64.289077 
L 131.622149 64.040853 
" style="fill:none;stroke:#f46d43;stroke-width:0.4;"/>
    <path clip-path="url(#pc3407d14e1)" d="M 127.842177 65.558962 
L 127.842177 65.14699 
" style="fill:none;stroke:#f46d43;stroke-width:0.4;"/>
    <path clip-path="url(#pc3407d14e1)" d="M 124.749473 66.023995 
L 124.749473 64.803858 
" style="fill:none;stroke:#f46d43;stroke-width:0.4;"/>
    <path clip-path="url(#pc3407d14e1)" d="M 122.172219 66.004821 
L 122.172219 63.981836 
" style="fill:none;stroke:#f46d43;stroke-width:0.4;"/>
    <path clip-path="url(#pc3407d14e1)" d="M 119.991466 65.860678 
L 119.991466 63.390493 
" style="fill:none;stroke:#f46d43;stroke-width:0.4;"/>
   </g>
   <g id="LineCollection_11">
    <path clip-path="url(#pc3407d14e1)" d="M 93.822429 60.868021 
L 93.822429 60.744192 
" style="fill:none;stroke:#f46d43;stroke-width:0.4;"/>
   </g>
   <g id="LineCollection_12">
    <path clip-path="url(#pc3407d14e1)" d="M 178.8718 55.900393 
L 178.8718 55.038597 
" style="fill:none;stroke:#fee08b;stroke-width:0.4;"/>
    <path clip-path="url(#pc3407d14e1)" d="M 161.861925 53.398175 
L 161.861925 53.253164 
" style="fill:none;stroke:#fee08b;stroke-width:0.4;"/>
    <path clip-path="url(#pc3407d14e1)" d="M 150.522009 51.114648 
L 150.522009 50.542755 
" style="fill:none;stroke:#fee08b;stroke-width:0.4;"/>
    <path clip-path="url(#pc3407d14e1)" d="M 142.422069 52.367142 
L 142.422069 50.822943 
" style="fill:none;stroke:#fee08b;stroke-width:0.4;"/>
    <path clip-path="url(#pc3407d14e1)" d="M 136.347114 52.252068 
L 136.347114 51.538167 
" style="fill:none;stroke:#fee08b;stroke-width:0.4;"/>
    <path clip-path="url(#pc3407d14e1)" d="M 131.622149 52.930093 
L 131.622149 52.856598 
" style="fill:none;stroke:#fee08b;stroke-width:0.4;"/>
    <path clip-path="url(#pc3407d14e1)" d="M 127.842177 52.30674 
L 127.842177 51.434488 
" style="fill:none;stroke:#fee08b;stroke-width:0.4;"/>
    <path clip-path="url(#pc3407d14e1)" d="M 124.749473 51.339872 
L 124.749473 50.147053 
" style="fill:none;stroke:#fee08b;stroke-width:0.4;"/>
    <path clip-path="url(#pc3407d14e1)" d="M 122.172219 50.700144 
L 122.172219 49.727348 
" style="fill:none;stroke:#fee08b;stroke-width:0.4;"/>
    <path clip-path="url(#pc3407d14e1)" d="M 119.991466 51.442316 
L 119.991466 50.347672 
" style="fill:none;stroke:#fee08b;stroke-width:0.4;"/>
   </g>
   <g id="LineCollection_13">
    <path clip-path="url(#pc3407d14e1)" d="M 93.822429 57.052809 
L 93.822429 47.520019 
" style="fill:none;stroke:#fee08b;stroke-width:0.4;"/>
   </g>
   <g id="LineCollection_14">
    <path clip-path="url(#pc3407d14e1)" d="M 178.8718 59.285065 
L 178.8718 57.417835 
" style="fill:none;stroke:#e6f598;stroke-width:0.4;"/>
    <path clip-path="url(#pc3407d14e1)" d="M 161.861925 56.148161 
L 161.861925 55.594453 
" style="fill:none;stroke:#e6f598;stroke-width:0.4;"/>
    <path clip-path="url(#pc3407d14e1)" d="M 150.522009 53.607224 
L 150.522009 53.222352 
" style="fill:none;stroke:#e6f598;stroke-width:0.4;"/>
    <path clip-path="url(#pc3407d14e1)" d="M 142.422069 52.374631 
L 142.422069 51.609332 
" style="fill:none;stroke:#e6f598;stroke-width:0.4;"/>
    <path clip-path="url(#pc3407d14e1)" d="M 136.347114 52.54668 
L 136.347114 51.136778 
" style="fill:none;stroke:#e6f598;stroke-width:0.4;"/>
    <path clip-path="url(#pc3407d14e1)" d="M 131.622149 52.479393 
L 131.622149 52.008817 
" style="fill:none;stroke:#e6f598;stroke-width:0.4;"/>
    <path clip-path="url(#pc3407d14e1)" d="M 127.842177 53.457593 
L 127.842177 53.136433 
" style="fill:none;stroke:#e6f598;stroke-width:0.4;"/>
    <path clip-path="url(#pc3407d14e1)" d="M 124.749473 54.149658 
L 124.749473 53.296157 
" style="fill:none;stroke:#e6f598;stroke-width:0.4;"/>
    <path clip-path="url(#pc3407d14e1)" d="M 122.172219 54.328129 
L 122.172219 52.66763 
" style="fill:none;stroke:#e6f598;stroke-width:0.4;"/>
    <path clip-path="url(#pc3407d14e1)" d="M 119.991466 54.251991 
L 119.991466 51.984188 
" style="fill:none;stroke:#e6f598;stroke-width:0.4;"/>
   </g>
   <g id="LineCollection_15">
    <path clip-path="url(#pc3407d14e1)" d="M 93.822429 50.658564 
L 93.822429 49.509346 
" style="fill:none;stroke:#e6f598;stroke-width:0.4;"/>
   </g>
   <g id="LineCollection_16">
    <path clip-path="url(#pc3407d14e1)" d="M 178.8718 38.745112 
L 178.8718 37.705348 
" style="fill:none;stroke:#66c2a5;stroke-width:0.4;"/>
    <path clip-path="url(#pc3407d14e1)" d="M 161.861925 35.780985 
L 161.861925 35.252137 
" style="fill:none;stroke:#66c2a5;stroke-width:0.4;"/>
    <path clip-path="url(#pc3407d14e1)" d="M 150.522009 35.576035 
L 150.522009 34.310182 
" style="fill:none;stroke:#66c2a5;stroke-width:0.4;"/>
    <path clip-path="url(#pc3407d14e1)" d="M 142.422069 35.827094 
L 142.422069 35.004778 
" style="fill:none;stroke:#66c2a5;stroke-width:0.4;"/>
    <path clip-path="url(#pc3407d14e1)" d="M 136.347114 36.154498 
L 136.347114 34.689114 
" style="fill:none;stroke:#66c2a5;stroke-width:0.4;"/>
    <path clip-path="url(#pc3407d14e1)" d="M 131.622149 34.406325 
L 131.622149 34.400302 
" style="fill:none;stroke:#66c2a5;stroke-width:0.4;"/>
    <path clip-path="url(#pc3407d14e1)" d="M 127.842177 32.829762 
L 127.842177 32.727421 
" style="fill:none;stroke:#66c2a5;stroke-width:0.4;"/>
    <path clip-path="url(#pc3407d14e1)" d="M 124.749473 32.518168 
L 124.749473 32.175465 
" style="fill:none;stroke:#66c2a5;stroke-width:0.4;"/>
    <path clip-path="url(#pc3407d14e1)" d="M 122.172219 33.209099 
L 122.172219 32.848632 
" style="fill:none;stroke:#66c2a5;stroke-width:0.4;"/>
    <path clip-path="url(#pc3407d14e1)" d="M 119.991466 33.407712 
L 119.991466 31.66284 
" style="fill:none;stroke:#66c2a5;stroke-width:0.4;"/>
   </g>
   <g id="LineCollection_17">
    <path clip-path="url(#pc3407d14e1)" d="M 93.822429 39.618797 
L 93.822429 30.003087 
" style="fill:none;stroke:#66c2a5;stroke-width:0.4;"/>
   </g>
   <g id="LineCollection_18">
    <path clip-path="url(#pc3407d14e1)" d="M 178.8718 33.816379 
L 178.8718 32.603247 
" style="fill:none;stroke:#5e4fa2;stroke-width:0.4;"/>
    <path clip-path="url(#pc3407d14e1)" d="M 161.861925 31.616105 
L 161.861925 30.825651 
" style="fill:none;stroke:#5e4fa2;stroke-width:0.4;"/>
    <path clip-path="url(#pc3407d14e1)" d="M 150.522009 29.877833 
L 150.522009 29.199342 
" style="fill:none;stroke:#5e4fa2;stroke-width:0.4;"/>
    <path clip-path="url(#pc3407d14e1)" d="M 142.422069 28.153697 
L 142.422069 27.770495 
" style="fill:none;stroke:#5e4fa2;stroke-width:0.4;"/>
    <path clip-path="url(#pc3407d14e1)" d="M 136.347114 27.250305 
L 136.347114 26.735054 
" style="fill:none;stroke:#5e4fa2;stroke-width:0.4;"/>
    <path clip-path="url(#pc3407d14e1)" d="M 131.622149 26.613059 
L 131.622149 26.015605 
" style="fill:none;stroke:#5e4fa2;stroke-width:0.4;"/>
    <path clip-path="url(#pc3407d14e1)" d="M 127.842177 26.348828 
L 127.842177 26.092811 
" style="fill:none;stroke:#5e4fa2;stroke-width:0.4;"/>
    <path clip-path="url(#pc3407d14e1)" d="M 124.749473 26.625638 
L 124.749473 26.533168 
" style="fill:none;stroke:#5e4fa2;stroke-width:0.4;"/>
    <path clip-path="url(#pc3407d14e1)" d="M 122.172219 26.766597 
L 122.172219 26.707613 
" style="fill:none;stroke:#5e4fa2;stroke-width:0.4;"/>
    <path clip-path="url(#pc3407d14e1)" d="M 119.991466 26.683399 
L 119.991466 26.440251 
" style="fill:none;stroke:#5e4fa2;stroke-width:0.4;"/>
   </g>
   <g id="LineCollection_19">
    <path clip-path="url(#pc3407d14e1)" d="M 93.822429 27.784057 
L 93.822429 25.475893 
" style="fill:none;stroke:#5e4fa2;stroke-width:0.4;"/>
   </g>
   <g id="line2d_46">
    <path clip-path="url(#pc3407d14e1)" d="M 93.822429 60.86254 
L 114.561194 62.501979 
L 127.842177 63.689725 
L 127.842177 63.689725 
" style="fill:none;stroke:#9e0142;stroke-linecap:round;stroke-width:0.5;"/>
   </g>
   <g id="line2d_47">
    <path clip-path="url(#pc3407d14e1)" d="M 93.822429 60.80594 
L 106.320174 62.448789 
L 117.149283 64.090941 
L 126.548133 65.735219 
L 127.842177 65.98121 
L 127.842177 65.98121 
" style="fill:none;stroke:#f46d43;stroke-linecap:round;stroke-width:0.5;"/>
   </g>
   <g id="line2d_48">
    <path clip-path="url(#pc3407d14e1)" d="M 93.822429 51.325327 
L 127.842177 50.465068 
L 127.842177 50.465068 
" style="fill:none;stroke:#fee08b;stroke-linecap:round;stroke-width:0.5;"/>
   </g>
   <g id="line2d_49">
    <path clip-path="url(#pc3407d14e1)" d="M 93.822429 50.0696 
L 108.840156 51.710573 
L 121.848708 53.350008 
L 127.842177 54.191962 
L 127.842177 54.191962 
" style="fill:none;stroke:#e6f598;stroke-linecap:round;stroke-width:0.5;"/>
   </g>
   <g id="line2d_50">
    <path clip-path="url(#pc3407d14e1)" d="M 93.822429 33.833522 
L 127.842177 32.399853 
L 127.842177 32.399853 
" style="fill:none;stroke:#66c2a5;stroke-linecap:round;stroke-width:0.5;"/>
   </g>
   <g id="line2d_51">
    <path clip-path="url(#pc3407d14e1)" d="M 93.822429 26.572139 
L 127.842177 26.636002 
L 127.842177 26.636002 
" style="fill:none;stroke:#5e4fa2;stroke-linecap:round;stroke-width:0.5;"/>
   </g>
   <g id="line2d_52">
    <defs>
     <path d="M -0 1.414214 
L 1.414214 0 
L 0 -1.414214 
L -1.414214 -0 
z
" id="m2dc7ea9089" style="stroke:#9e0142;stroke-linejoin:miter;stroke-width:0.4;"/>
    </defs>
    <g clip-path="url(#pc3407d14e1)">
     <use style="fill:#ce7fa0;fill-opacity:0.501961;stroke:#9e0142;stroke-linejoin:miter;stroke-width:0.4;" x="178.8718" xlink:href="#m2dc7ea9089" y="67.874454"/>
     <use style="fill:#ce7fa0;fill-opacity:0.501961;stroke:#9e0142;stroke-linejoin:miter;stroke-width:0.4;" x="161.861925" xlink:href="#m2dc7ea9089" y="65.806495"/>
     <use style="fill:#ce7fa0;fill-opacity:0.501961;stroke:#9e0142;stroke-linejoin:miter;stroke-width:0.4;" x="150.522009" xlink:href="#m2dc7ea9089" y="62.863184"/>
     <use style="fill:#ce7fa0;fill-opacity:0.501961;stroke:#9e0142;stroke-linejoin:miter;stroke-width:0.4;" x="142.422069" xlink:href="#m2dc7ea9089" y="63.156466"/>
     <use style="fill:#ce7fa0;fill-opacity:0.501961;stroke:#9e0142;stroke-linejoin:miter;stroke-width:0.4;" x="136.347114" xlink:href="#m2dc7ea9089" y="63.721672"/>
     <use style="fill:#ce7fa0;fill-opacity:0.501961;stroke:#9e0142;stroke-linejoin:miter;stroke-width:0.4;" x="131.622149" xlink:href="#m2dc7ea9089" y="64.714919"/>
     <use style="fill:#ce7fa0;fill-opacity:0.501961;stroke:#9e0142;stroke-linejoin:miter;stroke-width:0.4;" x="127.842177" xlink:href="#m2dc7ea9089" y="64.645883"/>
     <use style="fill:#ce7fa0;fill-opacity:0.501961;stroke:#9e0142;stroke-linejoin:miter;stroke-width:0.4;" x="124.749473" xlink:href="#m2dc7ea9089" y="63.566871"/>
     <use style="fill:#ce7fa0;fill-opacity:0.501961;stroke:#9e0142;stroke-linejoin:miter;stroke-width:0.4;" x="122.172219" xlink:href="#m2dc7ea9089" y="62.822795"/>
     <use style="fill:#ce7fa0;fill-opacity:0.501961;stroke:#9e0142;stroke-linejoin:miter;stroke-width:0.4;" x="119.991466" xlink:href="#m2dc7ea9089" y="63.160811"/>
    </g>
   </g>
   <g id="line2d_53">
    <defs>
     <path d="M 0 1 
C 0.265203 1 0.51958 0.894634 0.707107 0.707107 
C 0.894634 0.51958 1 0.265203 1 0 
C 1 -0.265203 0.894634 -0.51958 0.707107 -0.707107 
C 0.51958 -0.894634 0.265203 -1 0 -1 
C -0.265203 -1 -0.51958 -0.894634 -0.707107 -0.707107 
C -0.894634 -0.51958 -1 -0.265203 -1 0 
C -1 0.265203 -0.894634 0.51958 -0.707107 0.707107 
C -0.51958 0.894634 -0.265203 1 0 1 
z
" id="me7d571b6e6" style="stroke:#9e0142;stroke-width:0.4;"/>
    </defs>
    <g clip-path="url(#pc3407d14e1)">
     <use style="fill:#9e0142;stroke:#9e0142;stroke-width:0.4;" x="93.822429" xlink:href="#me7d571b6e6" y="60.86254"/>
    </g>
   </g>
   <g id="line2d_54">
    <defs>
     <path d="M -0 1.414214 
L 1.414214 0 
L 0 -1.414214 
L -1.414214 -0 
z
" id="m9372bbebe8" style="stroke:#f46d43;stroke-linejoin:miter;stroke-width:0.4;"/>
    </defs>
    <g clip-path="url(#pc3407d14e1)">
     <use style="fill:#f9b5a0;fill-opacity:0.501961;stroke:#f46d43;stroke-linejoin:miter;stroke-width:0.4;" x="178.8718" xlink:href="#m9372bbebe8" y="69.454048"/>
     <use style="fill:#f9b5a0;fill-opacity:0.501961;stroke:#f46d43;stroke-linejoin:miter;stroke-width:0.4;" x="161.861925" xlink:href="#m9372bbebe8" y="67.16776"/>
     <use style="fill:#f9b5a0;fill-opacity:0.501961;stroke:#f46d43;stroke-linejoin:miter;stroke-width:0.4;" x="150.522009" xlink:href="#m9372bbebe8" y="64.649092"/>
     <use style="fill:#f9b5a0;fill-opacity:0.501961;stroke:#f46d43;stroke-linejoin:miter;stroke-width:0.4;" x="142.422069" xlink:href="#m9372bbebe8" y="63.442413"/>
     <use style="fill:#f9b5a0;fill-opacity:0.501961;stroke:#f46d43;stroke-linejoin:miter;stroke-width:0.4;" x="136.347114" xlink:href="#m9372bbebe8" y="63.542904"/>
     <use style="fill:#f9b5a0;fill-opacity:0.501961;stroke:#f46d43;stroke-linejoin:miter;stroke-width:0.4;" x="131.622149" xlink:href="#m9372bbebe8" y="64.164295"/>
     <use style="fill:#f9b5a0;fill-opacity:0.501961;stroke:#f46d43;stroke-linejoin:miter;stroke-width:0.4;" x="127.842177" xlink:href="#m9372bbebe8" y="65.351131"/>
     <use style="fill:#f9b5a0;fill-opacity:0.501961;stroke:#f46d43;stroke-linejoin:miter;stroke-width:0.4;" x="124.749473" xlink:href="#m9372bbebe8" y="65.397746"/>
     <use style="fill:#f9b5a0;fill-opacity:0.501961;stroke:#f46d43;stroke-linejoin:miter;stroke-width:0.4;" x="122.172219" xlink:href="#m9372bbebe8" y="64.948884"/>
     <use style="fill:#f9b5a0;fill-opacity:0.501961;stroke:#f46d43;stroke-linejoin:miter;stroke-width:0.4;" x="119.991466" xlink:href="#m9372bbebe8" y="64.559362"/>
    </g>
   </g>
   <g id="line2d_55">
    <defs>
     <path d="M 0 1 
C 0.265203 1 0.51958 0.894634 0.707107 0.707107 
C 0.894634 0.51958 1 0.265203 1 0 
C 1 -0.265203 0.894634 -0.51958 0.707107 -0.707107 
C 0.51958 -0.894634 0.265203 -1 0 -1 
C -0.265203 -1 -0.51958 -0.894634 -0.707107 -0.707107 
C -0.894634 -0.51958 -1 -0.265203 -1 0 
C -1 0.265203 -0.894634 0.51958 -0.707107 0.707107 
C -0.51958 0.894634 -0.265203 1 0 1 
z
" id="m4521eff5c8" style="stroke:#f46d43;stroke-width:0.4;"/>
    </defs>
    <g clip-path="url(#pc3407d14e1)">
     <use style="fill:#f46d43;stroke:#f46d43;stroke-width:0.4;" x="93.822429" xlink:href="#m4521eff5c8" y="60.80594"/>
    </g>
   </g>
   <g id="line2d_56">
    <defs>
     <path d="M -0 1.414214 
L 1.414214 0 
L 0 -1.414214 
L -1.414214 -0 
z
" id="mfb476df07d" style="stroke:#fee08b;stroke-linejoin:miter;stroke-width:0.4;"/>
    </defs>
    <g clip-path="url(#pc3407d14e1)">
     <use style="fill:#feefc4;fill-opacity:0.501961;stroke:#fee08b;stroke-linejoin:miter;stroke-width:0.4;" x="178.8718" xlink:href="#mfb476df07d" y="55.461421"/>
     <use style="fill:#feefc4;fill-opacity:0.501961;stroke:#fee08b;stroke-linejoin:miter;stroke-width:0.4;" x="161.861925" xlink:href="#mfb476df07d" y="53.325441"/>
     <use style="fill:#feefc4;fill-opacity:0.501961;stroke:#fee08b;stroke-linejoin:miter;stroke-width:0.4;" x="150.522009" xlink:href="#mfb476df07d" y="50.825146"/>
     <use style="fill:#feefc4;fill-opacity:0.501961;stroke:#fee08b;stroke-linejoin:miter;stroke-width:0.4;" x="142.422069" xlink:href="#mfb476df07d" y="51.569132"/>
     <use style="fill:#feefc4;fill-opacity:0.501961;stroke:#fee08b;stroke-linejoin:miter;stroke-width:0.4;" x="136.347114" xlink:href="#mfb476df07d" y="51.889577"/>
     <use style="fill:#feefc4;fill-opacity:0.501961;stroke:#fee08b;stroke-linejoin:miter;stroke-width:0.4;" x="131.622149" xlink:href="#mfb476df07d" y="52.893287"/>
     <use style="fill:#feefc4;fill-opacity:0.501961;stroke:#fee08b;stroke-linejoin:miter;stroke-width:0.4;" x="127.842177" xlink:href="#mfb476df07d" y="51.862343"/>
     <use style="fill:#feefc4;fill-opacity:0.501961;stroke:#fee08b;stroke-linejoin:miter;stroke-width:0.4;" x="124.749473" xlink:href="#mfb476df07d" y="50.727997"/>
     <use style="fill:#feefc4;fill-opacity:0.501961;stroke:#fee08b;stroke-linejoin:miter;stroke-width:0.4;" x="122.172219" xlink:href="#mfb476df07d" y="50.203458"/>
     <use style="fill:#feefc4;fill-opacity:0.501961;stroke:#fee08b;stroke-linejoin:miter;stroke-width:0.4;" x="119.991466" xlink:href="#mfb476df07d" y="50.881969"/>
    </g>
   </g>
   <g id="line2d_57">
    <defs>
     <path d="M 0 1 
C 0.265203 1 0.51958 0.894634 0.707107 0.707107 
C 0.894634 0.51958 1 0.265203 1 0 
C 1 -0.265203 0.894634 -0.51958 0.707107 -0.707107 
C 0.51958 -0.894634 0.265203 -1 0 -1 
C -0.265203 -1 -0.51958 -0.894634 -0.707107 -0.707107 
C -0.894634 -0.51958 -1 -0.265203 -1 0 
C -1 0.265203 -0.894634 0.51958 -0.707107 0.707107 
C -0.51958 0.894634 -0.265203 1 0 1 
z
" id="mc27f9afd3d" style="stroke:#fee08b;stroke-width:0.4;"/>
    </defs>
    <g clip-path="url(#pc3407d14e1)">
     <use style="fill:#fee08b;stroke:#fee08b;stroke-width:0.4;" x="93.822429" xlink:href="#mc27f9afd3d" y="51.325327"/>
    </g>
   </g>
   <g id="line2d_58">
    <defs>
     <path d="M -0 1.414214 
L 1.414214 0 
L 0 -1.414214 
L -1.414214 -0 
z
" id="m1158453da6" style="stroke:#e6f598;stroke-linejoin:miter;stroke-width:0.4;"/>
    </defs>
    <g clip-path="url(#pc3407d14e1)">
     <use style="fill:#f2f9cb;fill-opacity:0.501961;stroke:#e6f598;stroke-linejoin:miter;stroke-width:0.4;" x="178.8718" xlink:href="#m1158453da6" y="58.313579"/>
     <use style="fill:#f2f9cb;fill-opacity:0.501961;stroke:#e6f598;stroke-linejoin:miter;stroke-width:0.4;" x="161.861925" xlink:href="#m1158453da6" y="55.867973"/>
     <use style="fill:#f2f9cb;fill-opacity:0.501961;stroke:#e6f598;stroke-linejoin:miter;stroke-width:0.4;" x="150.522009" xlink:href="#m1158453da6" y="53.413177"/>
     <use style="fill:#f2f9cb;fill-opacity:0.501961;stroke:#e6f598;stroke-linejoin:miter;stroke-width:0.4;" x="142.422069" xlink:href="#m1158453da6" y="51.985614"/>
     <use style="fill:#f2f9cb;fill-opacity:0.501961;stroke:#e6f598;stroke-linejoin:miter;stroke-width:0.4;" x="136.347114" xlink:href="#m1158453da6" y="51.820127"/>
     <use style="fill:#f2f9cb;fill-opacity:0.501961;stroke:#e6f598;stroke-linejoin:miter;stroke-width:0.4;" x="131.622149" xlink:href="#m1158453da6" y="52.241697"/>
     <use style="fill:#f2f9cb;fill-opacity:0.501961;stroke:#e6f598;stroke-linejoin:miter;stroke-width:0.4;" x="127.842177" xlink:href="#m1158453da6" y="53.295891"/>
     <use style="fill:#f2f9cb;fill-opacity:0.501961;stroke:#e6f598;stroke-linejoin:miter;stroke-width:0.4;" x="124.749473" xlink:href="#m1158453da6" y="53.714988"/>
     <use style="fill:#f2f9cb;fill-opacity:0.501961;stroke:#e6f598;stroke-linejoin:miter;stroke-width:0.4;" x="122.172219" xlink:href="#m1158453da6" y="53.467923"/>
     <use style="fill:#f2f9cb;fill-opacity:0.501961;stroke:#e6f598;stroke-linejoin:miter;stroke-width:0.4;" x="119.991466" xlink:href="#m1158453da6" y="53.062255"/>
    </g>
   </g>
   <g id="line2d_59">
    <defs>
     <path d="M 0 1 
C 0.265203 1 0.51958 0.894634 0.707107 0.707107 
C 0.894634 0.51958 1 0.265203 1 0 
C 1 -0.265203 0.894634 -0.51958 0.707107 -0.707107 
C 0.51958 -0.894634 0.265203 -1 0 -1 
C -0.265203 -1 -0.51958 -0.894634 -0.707107 -0.707107 
C -0.894634 -0.51958 -1 -0.265203 -1 0 
C -1 0.265203 -0.894634 0.51958 -0.707107 0.707107 
C -0.51958 0.894634 -0.265203 1 0 1 
z
" id="mf48f9d91f9" style="stroke:#e6f598;stroke-width:0.4;"/>
    </defs>
    <g clip-path="url(#pc3407d14e1)">
     <use style="fill:#e6f598;stroke:#e6f598;stroke-width:0.4;" x="93.822429" xlink:href="#mf48f9d91f9" y="50.0696"/>
    </g>
   </g>
   <g id="line2d_60">
    <defs>
     <path d="M -0 1.414214 
L 1.414214 0 
L 0 -1.414214 
L -1.414214 -0 
z
" id="ma6d8947939" style="stroke:#66c2a5;stroke-linejoin:miter;stroke-width:0.4;"/>
    </defs>
    <g clip-path="url(#pc3407d14e1)">
     <use style="fill:#b2e0d1;fill-opacity:0.501961;stroke:#66c2a5;stroke-linejoin:miter;stroke-width:0.4;" x="178.8718" xlink:href="#ma6d8947939" y="38.213478"/>
     <use style="fill:#b2e0d1;fill-opacity:0.501961;stroke:#66c2a5;stroke-linejoin:miter;stroke-width:0.4;" x="161.861925" xlink:href="#ma6d8947939" y="35.51352"/>
     <use style="fill:#b2e0d1;fill-opacity:0.501961;stroke:#66c2a5;stroke-linejoin:miter;stroke-width:0.4;" x="150.522009" xlink:href="#ma6d8947939" y="34.925693"/>
     <use style="fill:#b2e0d1;fill-opacity:0.501961;stroke:#66c2a5;stroke-linejoin:miter;stroke-width:0.4;" x="142.422069" xlink:href="#ma6d8947939" y="35.408585"/>
     <use style="fill:#b2e0d1;fill-opacity:0.501961;stroke:#66c2a5;stroke-linejoin:miter;stroke-width:0.4;" x="136.347114" xlink:href="#ma6d8947939" y="35.398472"/>
     <use style="fill:#b2e0d1;fill-opacity:0.501961;stroke:#66c2a5;stroke-linejoin:miter;stroke-width:0.4;" x="131.622149" xlink:href="#ma6d8947939" y="34.403313"/>
     <use style="fill:#b2e0d1;fill-opacity:0.501961;stroke:#66c2a5;stroke-linejoin:miter;stroke-width:0.4;" x="127.842177" xlink:href="#ma6d8947939" y="32.778478"/>
     <use style="fill:#b2e0d1;fill-opacity:0.501961;stroke:#66c2a5;stroke-linejoin:miter;stroke-width:0.4;" x="124.749473" xlink:href="#ma6d8947939" y="32.345539"/>
     <use style="fill:#b2e0d1;fill-opacity:0.501961;stroke:#66c2a5;stroke-linejoin:miter;stroke-width:0.4;" x="122.172219" xlink:href="#ma6d8947939" y="33.027453"/>
     <use style="fill:#b2e0d1;fill-opacity:0.501961;stroke:#66c2a5;stroke-linejoin:miter;stroke-width:0.4;" x="119.991466" xlink:href="#ma6d8947939" y="32.502201"/>
    </g>
   </g>
   <g id="line2d_61">
    <defs>
     <path d="M 0 1 
C 0.265203 1 0.51958 0.894634 0.707107 0.707107 
C 0.894634 0.51958 1 0.265203 1 0 
C 1 -0.265203 0.894634 -0.51958 0.707107 -0.707107 
C 0.51958 -0.894634 0.265203 -1 0 -1 
C -0.265203 -1 -0.51958 -0.894634 -0.707107 -0.707107 
C -0.894634 -0.51958 -1 -0.265203 -1 0 
C -1 0.265203 -0.894634 0.51958 -0.707107 0.707107 
C -0.51958 0.894634 -0.265203 1 0 1 
z
" id="m299abe0d83" style="stroke:#66c2a5;stroke-width:0.4;"/>
    </defs>
    <g clip-path="url(#pc3407d14e1)">
     <use style="fill:#66c2a5;stroke:#66c2a5;stroke-width:0.4;" x="93.822429" xlink:href="#m299abe0d83" y="33.833522"/>
    </g>
   </g>
   <g id="line2d_62">
    <defs>
     <path d="M -0 1.414214 
L 1.414214 0 
L 0 -1.414214 
L -1.414214 -0 
z
" id="m354e6fe625" style="stroke:#5e4fa2;stroke-linejoin:miter;stroke-width:0.4;"/>
    </defs>
    <g clip-path="url(#pc3407d14e1)">
     <use style="fill:#aea6d0;fill-opacity:0.501961;stroke:#5e4fa2;stroke-linejoin:miter;stroke-width:0.4;" x="178.8718" xlink:href="#m354e6fe625" y="33.193817"/>
     <use style="fill:#aea6d0;fill-opacity:0.501961;stroke:#5e4fa2;stroke-linejoin:miter;stroke-width:0.4;" x="161.861925" xlink:href="#m354e6fe625" y="31.214085"/>
     <use style="fill:#aea6d0;fill-opacity:0.501961;stroke:#5e4fa2;stroke-linejoin:miter;stroke-width:0.4;" x="150.522009" xlink:href="#m354e6fe625" y="29.533582"/>
     <use style="fill:#aea6d0;fill-opacity:0.501961;stroke:#5e4fa2;stroke-linejoin:miter;stroke-width:0.4;" x="142.422069" xlink:href="#m354e6fe625" y="27.960499"/>
     <use style="fill:#aea6d0;fill-opacity:0.501961;stroke:#5e4fa2;stroke-linejoin:miter;stroke-width:0.4;" x="136.347114" xlink:href="#m354e6fe625" y="26.989792"/>
     <use style="fill:#aea6d0;fill-opacity:0.501961;stroke:#5e4fa2;stroke-linejoin:miter;stroke-width:0.4;" x="131.622149" xlink:href="#m354e6fe625" y="26.310451"/>
     <use style="fill:#aea6d0;fill-opacity:0.501961;stroke:#5e4fa2;stroke-linejoin:miter;stroke-width:0.4;" x="127.842177" xlink:href="#m354e6fe625" y="26.220107"/>
     <use style="fill:#aea6d0;fill-opacity:0.501961;stroke:#5e4fa2;stroke-linejoin:miter;stroke-width:0.4;" x="124.749473" xlink:href="#m354e6fe625" y="26.57931"/>
     <use style="fill:#aea6d0;fill-opacity:0.501961;stroke:#5e4fa2;stroke-linejoin:miter;stroke-width:0.4;" x="122.172219" xlink:href="#m354e6fe625" y="26.737067"/>
     <use style="fill:#aea6d0;fill-opacity:0.501961;stroke:#5e4fa2;stroke-linejoin:miter;stroke-width:0.4;" x="119.991466" xlink:href="#m354e6fe625" y="26.561182"/>
    </g>
   </g>
   <g id="line2d_63">
    <defs>
     <path d="M 0 1 
C 0.265203 1 0.51958 0.894634 0.707107 0.707107 
C 0.894634 0.51958 1 0.265203 1 0 
C 1 -0.265203 0.894634 -0.51958 0.707107 -0.707107 
C 0.51958 -0.894634 0.265203 -1 0 -1 
C -0.265203 -1 -0.51958 -0.894634 -0.707107 -0.707107 
C -0.894634 -0.51958 -1 -0.265203 -1 0 
C -1 0.265203 -0.894634 0.51958 -0.707107 0.707107 
C -0.51958 0.894634 -0.265203 1 0 1 
z
" id="m3c93c20c9f" style="stroke:#5e4fa2;stroke-width:0.4;"/>
    </defs>
    <g clip-path="url(#pc3407d14e1)">
     <use style="fill:#5e4fa2;stroke:#5e4fa2;stroke-width:0.4;" x="93.822429" xlink:href="#m3c93c20c9f" y="26.572139"/>
    </g>
   </g>
   <g id="patch_8">
    <path d="M 90.573782 72.597381 
L 90.573782 23.232013 
" style="fill:none;stroke:#000000;stroke-linecap:square;stroke-linejoin:miter;stroke-width:0.35;"/>
   </g>
   <g id="patch_9">
    <path d="M 90.573782 72.597381 
L 164.209773 72.597381 
" style="fill:none;stroke:#000000;stroke-linecap:square;stroke-linejoin:miter;stroke-width:0.35;"/>
   </g>
   <g id="legend_2">
    <g id="LineCollection_20">
     <path d="M 50.892188 9.351811 
L 50.892188 3.351811 
" style="fill:none;stroke:#5e4fa2;stroke-width:0.4;"/>
    </g>
    <g id="line2d_64"/>
    <g id="line2d_65">
     <g>
      <use style="fill:#aea6d0;fill-opacity:0.501961;stroke:#5e4fa2;stroke-linejoin:miter;stroke-width:0.4;" x="50.892188" xlink:href="#m354e6fe625" y="6.351811"/>
     </g>
    </g>
    <g id="text_25">
     <!-- $V = +0.765J$ -->
     <g transform="translate(55.392188 8.451811)scale(0.06 -0.06)">
      <defs>
       <path d="M 2413 1472 
L 4109 1472 
C 4198 1472 4307 1472 4307 1580 
C 4307 1696 4205 1696 4109 1696 
L 2413 1696 
L 2413 3385 
C 2413 3475 2413 3584 2304 3584 
C 2189 3584 2189 3481 2189 3385 
L 2189 1696 
L 493 1696 
C 403 1696 294 1696 294 1587 
C 294 1472 397 1472 493 1472 
L 2189 1472 
L 2189 -194 
C 2189 -282 2189 -391 2298 -391 
C 2413 -391 2413 -289 2413 -194 
L 2413 1472 
z
" id="CMR17-2b" transform="scale(0.015625)"/>
       <path d="M 2886 3955 
L 2886 4096 
L 1382 4096 
C 634 4096 621 4166 595 4288 
L 480 4288 
L 294 3104 
L 410 3104 
C 429 3226 474 3552 550 3673 
C 589 3724 1062 3724 1171 3724 
L 2579 3724 
L 1869 2670 
C 1395 1961 1069 1003 1069 166 
C 1069 89 1069 -128 1299 -128 
C 1530 -128 1530 89 1530 172 
L 1530 466 
C 1530 1514 1709 2204 2003 2644 
L 2886 3955 
z
" id="CMR17-37" transform="scale(0.015625)"/>
      </defs>
      <use transform="scale(0.996264)" xlink:href="#CMMI12-56"/>
      <use transform="translate(106.221329 0)scale(0.996264)" xlink:href="#CMR17-3d"/>
      <use transform="translate(205.610127 0)scale(0.996264)" xlink:href="#CMR17-2b"/>
      <use transform="translate(277.324915 0)scale(0.996264)" xlink:href="#CMR17-30"/>
      <use transform="translate(323.015392 0)scale(0.996264)" xlink:href="#CMMI12-3a"/>
      <use transform="translate(350.112569 0)scale(0.996264)" xlink:href="#CMR17-37"/>
      <use transform="translate(395.803046 0)scale(0.996264)" xlink:href="#CMR17-36"/>
      <use transform="translate(441.493523 0)scale(0.996264)" xlink:href="#CMR17-35"/>
      <use transform="translate(487.184001 0)scale(0.996264)" xlink:href="#CMMI12-4a"/>
     </g>
    </g>
    <g id="LineCollection_21">
     <path d="M 50.892188 17.114124 
L 50.892188 11.114124 
" style="fill:none;stroke:#66c2a5;stroke-width:0.4;"/>
    </g>
    <g id="line2d_66"/>
    <g id="line2d_67">
     <g>
      <use style="fill:#b2e0d1;fill-opacity:0.501961;stroke:#66c2a5;stroke-linejoin:miter;stroke-width:0.4;" x="50.892188" xlink:href="#ma6d8947939" y="14.114124"/>
     </g>
    </g>
    <g id="text_26">
     <!-- $V = -0.5J$ -->
     <g transform="translate(55.392188 16.214124)scale(0.06 -0.06)">
      <use transform="scale(0.996264)" xlink:href="#CMMI12-56"/>
      <use transform="translate(106.221329 0)scale(0.996264)" xlink:href="#CMR17-3d"/>
      <use transform="translate(205.610127 0)scale(0.996264)" xlink:href="#CMSY10-0"/>
      <use transform="translate(283.097594 0)scale(0.996264)" xlink:href="#CMR17-30"/>
      <use transform="translate(328.788071 0)scale(0.996264)" xlink:href="#CMMI12-3a"/>
      <use transform="translate(355.885248 0)scale(0.996264)" xlink:href="#CMR17-35"/>
      <use transform="translate(401.575726 0)scale(0.996264)" xlink:href="#CMMI12-4a"/>
     </g>
    </g>
    <g id="LineCollection_22">
     <path d="M 111.781965 9.351811 
L 111.781965 3.351811 
" style="fill:none;stroke:#e6f598;stroke-width:0.4;"/>
    </g>
    <g id="line2d_68"/>
    <g id="line2d_69">
     <g>
      <use style="fill:#f2f9cb;fill-opacity:0.501961;stroke:#e6f598;stroke-linejoin:miter;stroke-width:0.4;" x="111.781965" xlink:href="#m1158453da6" y="6.351811"/>
     </g>
    </g>
    <g id="text_27">
     <!-- $V = +0.25J$ -->
     <g transform="translate(116.281965 8.451811)scale(0.06 -0.06)">
      <use transform="scale(0.996264)" xlink:href="#CMMI12-56"/>
      <use transform="translate(106.221329 0)scale(0.996264)" xlink:href="#CMR17-3d"/>
      <use transform="translate(205.610127 0)scale(0.996264)" xlink:href="#CMR17-2b"/>
      <use transform="translate(277.324915 0)scale(0.996264)" xlink:href="#CMR17-30"/>
      <use transform="translate(323.015392 0)scale(0.996264)" xlink:href="#CMMI12-3a"/>
      <use transform="translate(350.112569 0)scale(0.996264)" xlink:href="#CMR17-32"/>
      <use transform="translate(395.803046 0)scale(0.996264)" xlink:href="#CMR17-35"/>
      <use transform="translate(441.493523 0)scale(0.996264)" xlink:href="#CMMI12-4a"/>
     </g>
    </g>
    <g id="LineCollection_23">
     <path d="M 111.781965 17.114124 
L 111.781965 11.114124 
" style="fill:none;stroke:#fee08b;stroke-width:0.4;"/>
    </g>
    <g id="line2d_70"/>
    <g id="line2d_71">
     <g>
      <use style="fill:#feefc4;fill-opacity:0.501961;stroke:#fee08b;stroke-linejoin:miter;stroke-width:0.4;" x="111.781965" xlink:href="#mfb476df07d" y="14.114124"/>
     </g>
    </g>
    <g id="text_28">
     <!-- $V = -0.25J$ -->
     <g transform="translate(116.281965 16.214124)scale(0.06 -0.06)">
      <use transform="scale(0.996264)" xlink:href="#CMMI12-56"/>
      <use transform="translate(106.221329 0)scale(0.996264)" xlink:href="#CMR17-3d"/>
      <use transform="translate(205.610127 0)scale(0.996264)" xlink:href="#CMSY10-0"/>
      <use transform="translate(283.097594 0)scale(0.996264)" xlink:href="#CMR17-30"/>
      <use transform="translate(328.788071 0)scale(0.996264)" xlink:href="#CMMI12-3a"/>
      <use transform="translate(355.885248 0)scale(0.996264)" xlink:href="#CMR17-32"/>
      <use transform="translate(401.575726 0)scale(0.996264)" xlink:href="#CMR17-35"/>
      <use transform="translate(447.266203 0)scale(0.996264)" xlink:href="#CMMI12-4a"/>
     </g>
    </g>
    <g id="LineCollection_24">
     <path d="M 169.18488 9.351811 
L 169.18488 3.351811 
" style="fill:none;stroke:#f46d43;stroke-width:0.4;"/>
    </g>
    <g id="line2d_72"/>
    <g id="line2d_73">
     <g>
      <use style="fill:#f9b5a0;fill-opacity:0.501961;stroke:#f46d43;stroke-linejoin:miter;stroke-width:0.4;" x="169.18488" xlink:href="#m9372bbebe8" y="6.351811"/>
     </g>
    </g>
    <g id="text_29">
     <!-- $V = +0.15J$ -->
     <g transform="translate(173.68488 8.451811)scale(0.06 -0.06)">
      <use transform="scale(0.996264)" xlink:href="#CMMI12-56"/>
      <use transform="translate(106.221329 0)scale(0.996264)" xlink:href="#CMR17-3d"/>
      <use transform="translate(205.610127 0)scale(0.996264)" xlink:href="#CMR17-2b"/>
      <use transform="translate(277.324915 0)scale(0.996264)" xlink:href="#CMR17-30"/>
      <use transform="translate(323.015392 0)scale(0.996264)" xlink:href="#CMMI12-3a"/>
      <use transform="translate(350.112569 0)scale(0.996264)" xlink:href="#CMR17-31"/>
      <use transform="translate(395.803046 0)scale(0.996264)" xlink:href="#CMR17-35"/>
      <use transform="translate(441.493523 0)scale(0.996264)" xlink:href="#CMMI12-4a"/>
     </g>
    </g>
    <g id="LineCollection_25">
     <path d="M 169.18488 17.114124 
L 169.18488 11.114124 
" style="fill:none;stroke:#9e0142;stroke-width:0.4;"/>
    </g>
    <g id="line2d_74"/>
    <g id="line2d_75">
     <g>
      <use style="fill:#ce7fa0;fill-opacity:0.501961;stroke:#9e0142;stroke-linejoin:miter;stroke-width:0.4;" x="169.18488" xlink:href="#m2dc7ea9089" y="14.114124"/>
     </g>
    </g>
    <g id="text_30">
     <!-- $V = -0.15J$ -->
     <g transform="translate(173.68488 16.214124)scale(0.06 -0.06)">
      <use transform="scale(0.996264)" xlink:href="#CMMI12-56"/>
      <use transform="translate(106.221329 0)scale(0.996264)" xlink:href="#CMR17-3d"/>
      <use transform="translate(205.610127 0)scale(0.996264)" xlink:href="#CMSY10-0"/>
      <use transform="translate(283.097594 0)scale(0.996264)" xlink:href="#CMR17-30"/>
      <use transform="translate(328.788071 0)scale(0.996264)" xlink:href="#CMMI12-3a"/>
      <use transform="translate(355.885248 0)scale(0.996264)" xlink:href="#CMR17-31"/>
      <use transform="translate(401.575726 0)scale(0.996264)" xlink:href="#CMR17-35"/>
      <use transform="translate(447.266203 0)scale(0.996264)" xlink:href="#CMMI12-4a"/>
     </g>
    </g>
   </g>
  </g>
 </g>
 <defs>
  <clipPath id="p2c1f86826b">
   <rect height="123.41342" width="204.544419" x="35.255901" y="0.72"/>
  </clipPath>
  <clipPath id="pc3407d14e1">
   <rect height="49.365368" width="73.635991" x="90.573782" y="23.232013"/>
  </clipPath>
 </defs>
</svg>
